G04 #@! TF.GenerationSoftware,KiCad,Pcbnew,(5.1.2-1)-1*
G04 #@! TF.CreationDate,2019-08-06T14:05:24+03:00*
G04 #@! TF.ProjectId,Boost_Converter,426f6f73-745f-4436-9f6e-766572746572,rev?*
G04 #@! TF.SameCoordinates,Original*
G04 #@! TF.FileFunction,Other,User*
%FSLAX46Y46*%
G04 Gerber Fmt 4.6, Leading zero omitted, Abs format (unit mm)*
G04 Created by KiCad (PCBNEW (5.1.2-1)-1) date 2019-08-06 14:05:24*
%MOMM*%
%LPD*%
G04 APERTURE LIST*
%ADD10C,0.050000*%
G04 APERTURE END LIST*
D10*
X101920000Y-90945000D02*
X104080000Y-90945000D01*
X104080000Y-90945000D02*
X104080000Y-95905000D01*
X104080000Y-95905000D02*
X101920000Y-95905000D01*
X101920000Y-95905000D02*
X101920000Y-90945000D01*
X93650000Y-58900000D02*
X93650000Y-57050000D01*
X93650000Y-57050000D02*
X92600000Y-57050000D01*
X92600000Y-57050000D02*
X92600000Y-54950000D01*
X92600000Y-54950000D02*
X93650000Y-54950000D01*
X93650000Y-54950000D02*
X93650000Y-53100000D01*
X98300000Y-53100000D02*
X93650000Y-53100000D01*
X98300000Y-58900000D02*
X93650000Y-58900000D01*
X99450000Y-54250000D02*
X98300000Y-53100000D01*
X99450000Y-57750000D02*
X98300000Y-58900000D01*
X99450000Y-57750000D02*
X99450000Y-57050000D01*
X99450000Y-54950000D02*
X99450000Y-54250000D01*
X99450000Y-57050000D02*
X100500000Y-57050000D01*
X100500000Y-57050000D02*
X100500000Y-54950000D01*
X100500000Y-54950000D02*
X99450000Y-54950000D01*
X102130000Y-58937500D02*
X102130000Y-54037500D01*
X104370000Y-58937500D02*
X102130000Y-58937500D01*
X104370000Y-54037500D02*
X104370000Y-58937500D01*
X102130000Y-54037500D02*
X104370000Y-54037500D01*
X89130000Y-61550000D02*
X91370000Y-61550000D01*
X91370000Y-61550000D02*
X91370000Y-66450000D01*
X91370000Y-66450000D02*
X89130000Y-66450000D01*
X89130000Y-66450000D02*
X89130000Y-61550000D01*
X108462500Y-76880000D02*
X108462500Y-79120000D01*
X108462500Y-79120000D02*
X103562500Y-79120000D01*
X103562500Y-79120000D02*
X103562500Y-76880000D01*
X103562500Y-76880000D02*
X108462500Y-76880000D01*
X40700000Y-77630000D02*
X40700000Y-79870000D01*
X40700000Y-79870000D02*
X35800000Y-79870000D01*
X35800000Y-79870000D02*
X35800000Y-77630000D01*
X35800000Y-77630000D02*
X40700000Y-77630000D01*
X92370000Y-85562500D02*
X92370000Y-90462500D01*
X90130000Y-85562500D02*
X92370000Y-85562500D01*
X90130000Y-90462500D02*
X90130000Y-85562500D01*
X92370000Y-90462500D02*
X90130000Y-90462500D01*
X108250000Y-74950000D02*
X104250000Y-74950000D01*
X104250000Y-74950000D02*
X104250000Y-73050000D01*
X108250000Y-73050000D02*
X104250000Y-73050000D01*
X108250000Y-74950000D02*
X108250000Y-73050000D01*
X105670000Y-96055000D02*
X105670000Y-91095000D01*
X107830000Y-96055000D02*
X105670000Y-96055000D01*
X107830000Y-91095000D02*
X107830000Y-96055000D01*
X105670000Y-91095000D02*
X107830000Y-91095000D01*
X27622500Y-71100000D02*
X27622500Y-79900000D01*
X33722500Y-79900000D02*
X27622500Y-79900000D01*
X33722500Y-71100000D02*
X33722500Y-79900000D01*
X27622500Y-71100000D02*
X33722500Y-71100000D01*
X101750000Y-82250000D02*
X90250000Y-82250000D01*
X102500000Y-70000000D02*
X102500000Y-81500000D01*
X90250000Y-69250000D02*
X101750000Y-69250000D01*
X89500000Y-81500000D02*
X89500000Y-70000000D01*
X102500000Y-81500000D02*
G75*
G02X101750000Y-82250000I-750000J0D01*
G01*
X101750000Y-69250000D02*
G75*
G02X102500000Y-70000000I0J-750000D01*
G01*
X89500000Y-70000000D02*
G75*
G02X90250000Y-69250000I750000J0D01*
G01*
X90250000Y-82250000D02*
G75*
G02X89500000Y-81500000I0J750000D01*
G01*
X102130000Y-61070000D02*
X104370000Y-61070000D01*
X104370000Y-61070000D02*
X104370000Y-65630000D01*
X104370000Y-65630000D02*
X102130000Y-65630000D01*
X102130000Y-65630000D02*
X102130000Y-61070000D01*
X106130000Y-65680000D02*
X106130000Y-61120000D01*
X108370000Y-65680000D02*
X106130000Y-65680000D01*
X108370000Y-61120000D02*
X108370000Y-65680000D01*
X106130000Y-61120000D02*
X108370000Y-61120000D01*
X103820000Y-72120000D02*
X103820000Y-69880000D01*
X103820000Y-69880000D02*
X108380000Y-69880000D01*
X108380000Y-69880000D02*
X108380000Y-72120000D01*
X108380000Y-72120000D02*
X103820000Y-72120000D01*
X103820000Y-66630000D02*
X108380000Y-66630000D01*
X103820000Y-68870000D02*
X103820000Y-66630000D01*
X108380000Y-68870000D02*
X103820000Y-68870000D01*
X108380000Y-66630000D02*
X108380000Y-68870000D01*
X104120000Y-90130000D02*
X101880000Y-90130000D01*
X101880000Y-90130000D02*
X101880000Y-85570000D01*
X101880000Y-85570000D02*
X104120000Y-85570000D01*
X104120000Y-85570000D02*
X104120000Y-90130000D01*
X107870000Y-85620000D02*
X107870000Y-90180000D01*
X105630000Y-85620000D02*
X107870000Y-85620000D01*
X105630000Y-90180000D02*
X105630000Y-85620000D01*
X107870000Y-90180000D02*
X105630000Y-90180000D01*
X90130000Y-90870000D02*
X92370000Y-90870000D01*
X92370000Y-90870000D02*
X92370000Y-95430000D01*
X92370000Y-95430000D02*
X90130000Y-95430000D01*
X90130000Y-95430000D02*
X90130000Y-90870000D01*
X99930000Y-82880000D02*
X99930000Y-85120000D01*
X99930000Y-85120000D02*
X95370000Y-85120000D01*
X95370000Y-85120000D02*
X95370000Y-82880000D01*
X95370000Y-82880000D02*
X99930000Y-82880000D01*
X99930000Y-92870000D02*
X95370000Y-92870000D01*
X99930000Y-90630000D02*
X99930000Y-92870000D01*
X95370000Y-90630000D02*
X99930000Y-90630000D01*
X95370000Y-92870000D02*
X95370000Y-90630000D01*
X100340000Y-62040000D02*
X100340000Y-66860000D01*
X100340000Y-66860000D02*
X93360000Y-66860000D01*
X93360000Y-66860000D02*
X93360000Y-62040000D01*
X93360000Y-62040000D02*
X100340000Y-62040000D01*
X99690000Y-86245000D02*
X99690000Y-88905000D01*
X99690000Y-88905000D02*
X95710000Y-88905000D01*
X95710000Y-88905000D02*
X95710000Y-86245000D01*
X95710000Y-86245000D02*
X99690000Y-86245000D01*
M02*
