G04 #@! TF.GenerationSoftware,KiCad,Pcbnew,(5.1.2-1)-1*
G04 #@! TF.CreationDate,2019-08-05T15:02:51+03:00*
G04 #@! TF.ProjectId,Boost_Converter,426f6f73-745f-4436-9f6e-766572746572,rev?*
G04 #@! TF.SameCoordinates,Original*
G04 #@! TF.FileFunction,Paste,Top*
G04 #@! TF.FilePolarity,Positive*
%FSLAX46Y46*%
G04 Gerber Fmt 4.6, Leading zero omitted, Abs format (unit mm)*
G04 Created by KiCad (PCBNEW (5.1.2-1)-1) date 2019-08-05 15:02:51*
%MOMM*%
%LPD*%
G04 APERTURE LIST*
%ADD10C,0.100000*%
%ADD11C,1.600000*%
%ADD12R,6.340000X7.340000*%
%ADD13C,1.425000*%
%ADD14R,1.000000X1.000000*%
%ADD15R,4.000000X0.900000*%
%ADD16R,1.900000X1.500000*%
%ADD17R,1.350000X0.400000*%
%ADD18R,2.900000X5.400000*%
%ADD19C,1.250000*%
%ADD20R,1.270000X0.510000*%
%ADD21R,0.380000X0.200000*%
%ADD22R,0.700000X1.000000*%
G04 APERTURE END LIST*
D10*
G36*
X103599504Y-91201204D02*
G01*
X103623773Y-91204804D01*
X103647571Y-91210765D01*
X103670671Y-91219030D01*
X103692849Y-91229520D01*
X103713893Y-91242133D01*
X103733598Y-91256747D01*
X103751777Y-91273223D01*
X103768253Y-91291402D01*
X103782867Y-91311107D01*
X103795480Y-91332151D01*
X103805970Y-91354329D01*
X103814235Y-91377429D01*
X103820196Y-91401227D01*
X103823796Y-91425496D01*
X103825000Y-91450000D01*
X103825000Y-92550000D01*
X103823796Y-92574504D01*
X103820196Y-92598773D01*
X103814235Y-92622571D01*
X103805970Y-92645671D01*
X103795480Y-92667849D01*
X103782867Y-92688893D01*
X103768253Y-92708598D01*
X103751777Y-92726777D01*
X103733598Y-92743253D01*
X103713893Y-92757867D01*
X103692849Y-92770480D01*
X103670671Y-92780970D01*
X103647571Y-92789235D01*
X103623773Y-92795196D01*
X103599504Y-92798796D01*
X103575000Y-92800000D01*
X102425000Y-92800000D01*
X102400496Y-92798796D01*
X102376227Y-92795196D01*
X102352429Y-92789235D01*
X102329329Y-92780970D01*
X102307151Y-92770480D01*
X102286107Y-92757867D01*
X102266402Y-92743253D01*
X102248223Y-92726777D01*
X102231747Y-92708598D01*
X102217133Y-92688893D01*
X102204520Y-92667849D01*
X102194030Y-92645671D01*
X102185765Y-92622571D01*
X102179804Y-92598773D01*
X102176204Y-92574504D01*
X102175000Y-92550000D01*
X102175000Y-91450000D01*
X102176204Y-91425496D01*
X102179804Y-91401227D01*
X102185765Y-91377429D01*
X102194030Y-91354329D01*
X102204520Y-91332151D01*
X102217133Y-91311107D01*
X102231747Y-91291402D01*
X102248223Y-91273223D01*
X102266402Y-91256747D01*
X102286107Y-91242133D01*
X102307151Y-91229520D01*
X102329329Y-91219030D01*
X102352429Y-91210765D01*
X102376227Y-91204804D01*
X102400496Y-91201204D01*
X102425000Y-91200000D01*
X103575000Y-91200000D01*
X103599504Y-91201204D01*
X103599504Y-91201204D01*
G37*
D11*
X103000000Y-92000000D03*
D10*
G36*
X103599504Y-94051204D02*
G01*
X103623773Y-94054804D01*
X103647571Y-94060765D01*
X103670671Y-94069030D01*
X103692849Y-94079520D01*
X103713893Y-94092133D01*
X103733598Y-94106747D01*
X103751777Y-94123223D01*
X103768253Y-94141402D01*
X103782867Y-94161107D01*
X103795480Y-94182151D01*
X103805970Y-94204329D01*
X103814235Y-94227429D01*
X103820196Y-94251227D01*
X103823796Y-94275496D01*
X103825000Y-94300000D01*
X103825000Y-95400000D01*
X103823796Y-95424504D01*
X103820196Y-95448773D01*
X103814235Y-95472571D01*
X103805970Y-95495671D01*
X103795480Y-95517849D01*
X103782867Y-95538893D01*
X103768253Y-95558598D01*
X103751777Y-95576777D01*
X103733598Y-95593253D01*
X103713893Y-95607867D01*
X103692849Y-95620480D01*
X103670671Y-95630970D01*
X103647571Y-95639235D01*
X103623773Y-95645196D01*
X103599504Y-95648796D01*
X103575000Y-95650000D01*
X102425000Y-95650000D01*
X102400496Y-95648796D01*
X102376227Y-95645196D01*
X102352429Y-95639235D01*
X102329329Y-95630970D01*
X102307151Y-95620480D01*
X102286107Y-95607867D01*
X102266402Y-95593253D01*
X102248223Y-95576777D01*
X102231747Y-95558598D01*
X102217133Y-95538893D01*
X102204520Y-95517849D01*
X102194030Y-95495671D01*
X102185765Y-95472571D01*
X102179804Y-95448773D01*
X102176204Y-95424504D01*
X102175000Y-95400000D01*
X102175000Y-94300000D01*
X102176204Y-94275496D01*
X102179804Y-94251227D01*
X102185765Y-94227429D01*
X102194030Y-94204329D01*
X102204520Y-94182151D01*
X102217133Y-94161107D01*
X102231747Y-94141402D01*
X102248223Y-94123223D01*
X102266402Y-94106747D01*
X102286107Y-94092133D01*
X102307151Y-94079520D01*
X102329329Y-94069030D01*
X102352429Y-94060765D01*
X102376227Y-94054804D01*
X102400496Y-94051204D01*
X102425000Y-94050000D01*
X103575000Y-94050000D01*
X103599504Y-94051204D01*
X103599504Y-94051204D01*
G37*
D11*
X103000000Y-94850000D03*
D12*
X52190000Y-114010000D03*
X52100000Y-35440000D03*
X77350000Y-35440000D03*
X77440000Y-114010000D03*
D10*
G36*
X100024504Y-55201204D02*
G01*
X100048773Y-55204804D01*
X100072571Y-55210765D01*
X100095671Y-55219030D01*
X100117849Y-55229520D01*
X100138893Y-55242133D01*
X100158598Y-55256747D01*
X100176777Y-55273223D01*
X100193253Y-55291402D01*
X100207867Y-55311107D01*
X100220480Y-55332151D01*
X100230970Y-55354329D01*
X100239235Y-55377429D01*
X100245196Y-55401227D01*
X100248796Y-55425496D01*
X100250000Y-55450000D01*
X100250000Y-56550000D01*
X100248796Y-56574504D01*
X100245196Y-56598773D01*
X100239235Y-56622571D01*
X100230970Y-56645671D01*
X100220480Y-56667849D01*
X100207867Y-56688893D01*
X100193253Y-56708598D01*
X100176777Y-56726777D01*
X100158598Y-56743253D01*
X100138893Y-56757867D01*
X100117849Y-56770480D01*
X100095671Y-56780970D01*
X100072571Y-56789235D01*
X100048773Y-56795196D01*
X100024504Y-56798796D01*
X100000000Y-56800000D01*
X97500000Y-56800000D01*
X97475496Y-56798796D01*
X97451227Y-56795196D01*
X97427429Y-56789235D01*
X97404329Y-56780970D01*
X97382151Y-56770480D01*
X97361107Y-56757867D01*
X97341402Y-56743253D01*
X97323223Y-56726777D01*
X97306747Y-56708598D01*
X97292133Y-56688893D01*
X97279520Y-56667849D01*
X97269030Y-56645671D01*
X97260765Y-56622571D01*
X97254804Y-56598773D01*
X97251204Y-56574504D01*
X97250000Y-56550000D01*
X97250000Y-55450000D01*
X97251204Y-55425496D01*
X97254804Y-55401227D01*
X97260765Y-55377429D01*
X97269030Y-55354329D01*
X97279520Y-55332151D01*
X97292133Y-55311107D01*
X97306747Y-55291402D01*
X97323223Y-55273223D01*
X97341402Y-55256747D01*
X97361107Y-55242133D01*
X97382151Y-55229520D01*
X97404329Y-55219030D01*
X97427429Y-55210765D01*
X97451227Y-55204804D01*
X97475496Y-55201204D01*
X97500000Y-55200000D01*
X100000000Y-55200000D01*
X100024504Y-55201204D01*
X100024504Y-55201204D01*
G37*
D11*
X98750000Y-56000000D03*
D10*
G36*
X95624504Y-55201204D02*
G01*
X95648773Y-55204804D01*
X95672571Y-55210765D01*
X95695671Y-55219030D01*
X95717849Y-55229520D01*
X95738893Y-55242133D01*
X95758598Y-55256747D01*
X95776777Y-55273223D01*
X95793253Y-55291402D01*
X95807867Y-55311107D01*
X95820480Y-55332151D01*
X95830970Y-55354329D01*
X95839235Y-55377429D01*
X95845196Y-55401227D01*
X95848796Y-55425496D01*
X95850000Y-55450000D01*
X95850000Y-56550000D01*
X95848796Y-56574504D01*
X95845196Y-56598773D01*
X95839235Y-56622571D01*
X95830970Y-56645671D01*
X95820480Y-56667849D01*
X95807867Y-56688893D01*
X95793253Y-56708598D01*
X95776777Y-56726777D01*
X95758598Y-56743253D01*
X95738893Y-56757867D01*
X95717849Y-56770480D01*
X95695671Y-56780970D01*
X95672571Y-56789235D01*
X95648773Y-56795196D01*
X95624504Y-56798796D01*
X95600000Y-56800000D01*
X93100000Y-56800000D01*
X93075496Y-56798796D01*
X93051227Y-56795196D01*
X93027429Y-56789235D01*
X93004329Y-56780970D01*
X92982151Y-56770480D01*
X92961107Y-56757867D01*
X92941402Y-56743253D01*
X92923223Y-56726777D01*
X92906747Y-56708598D01*
X92892133Y-56688893D01*
X92879520Y-56667849D01*
X92869030Y-56645671D01*
X92860765Y-56622571D01*
X92854804Y-56598773D01*
X92851204Y-56574504D01*
X92850000Y-56550000D01*
X92850000Y-55450000D01*
X92851204Y-55425496D01*
X92854804Y-55401227D01*
X92860765Y-55377429D01*
X92869030Y-55354329D01*
X92879520Y-55332151D01*
X92892133Y-55311107D01*
X92906747Y-55291402D01*
X92923223Y-55273223D01*
X92941402Y-55256747D01*
X92961107Y-55242133D01*
X92982151Y-55229520D01*
X93004329Y-55219030D01*
X93027429Y-55210765D01*
X93051227Y-55204804D01*
X93075496Y-55201204D01*
X93100000Y-55200000D01*
X95600000Y-55200000D01*
X95624504Y-55201204D01*
X95624504Y-55201204D01*
G37*
D11*
X94350000Y-56000000D03*
D10*
G36*
X103899504Y-57263704D02*
G01*
X103923773Y-57267304D01*
X103947571Y-57273265D01*
X103970671Y-57281530D01*
X103992849Y-57292020D01*
X104013893Y-57304633D01*
X104033598Y-57319247D01*
X104051777Y-57335723D01*
X104068253Y-57353902D01*
X104082867Y-57373607D01*
X104095480Y-57394651D01*
X104105970Y-57416829D01*
X104114235Y-57439929D01*
X104120196Y-57463727D01*
X104123796Y-57487996D01*
X104125000Y-57512500D01*
X104125000Y-58437500D01*
X104123796Y-58462004D01*
X104120196Y-58486273D01*
X104114235Y-58510071D01*
X104105970Y-58533171D01*
X104095480Y-58555349D01*
X104082867Y-58576393D01*
X104068253Y-58596098D01*
X104051777Y-58614277D01*
X104033598Y-58630753D01*
X104013893Y-58645367D01*
X103992849Y-58657980D01*
X103970671Y-58668470D01*
X103947571Y-58676735D01*
X103923773Y-58682696D01*
X103899504Y-58686296D01*
X103875000Y-58687500D01*
X102625000Y-58687500D01*
X102600496Y-58686296D01*
X102576227Y-58682696D01*
X102552429Y-58676735D01*
X102529329Y-58668470D01*
X102507151Y-58657980D01*
X102486107Y-58645367D01*
X102466402Y-58630753D01*
X102448223Y-58614277D01*
X102431747Y-58596098D01*
X102417133Y-58576393D01*
X102404520Y-58555349D01*
X102394030Y-58533171D01*
X102385765Y-58510071D01*
X102379804Y-58486273D01*
X102376204Y-58462004D01*
X102375000Y-58437500D01*
X102375000Y-57512500D01*
X102376204Y-57487996D01*
X102379804Y-57463727D01*
X102385765Y-57439929D01*
X102394030Y-57416829D01*
X102404520Y-57394651D01*
X102417133Y-57373607D01*
X102431747Y-57353902D01*
X102448223Y-57335723D01*
X102466402Y-57319247D01*
X102486107Y-57304633D01*
X102507151Y-57292020D01*
X102529329Y-57281530D01*
X102552429Y-57273265D01*
X102576227Y-57267304D01*
X102600496Y-57263704D01*
X102625000Y-57262500D01*
X103875000Y-57262500D01*
X103899504Y-57263704D01*
X103899504Y-57263704D01*
G37*
D13*
X103250000Y-57975000D03*
D10*
G36*
X103899504Y-54288704D02*
G01*
X103923773Y-54292304D01*
X103947571Y-54298265D01*
X103970671Y-54306530D01*
X103992849Y-54317020D01*
X104013893Y-54329633D01*
X104033598Y-54344247D01*
X104051777Y-54360723D01*
X104068253Y-54378902D01*
X104082867Y-54398607D01*
X104095480Y-54419651D01*
X104105970Y-54441829D01*
X104114235Y-54464929D01*
X104120196Y-54488727D01*
X104123796Y-54512996D01*
X104125000Y-54537500D01*
X104125000Y-55462500D01*
X104123796Y-55487004D01*
X104120196Y-55511273D01*
X104114235Y-55535071D01*
X104105970Y-55558171D01*
X104095480Y-55580349D01*
X104082867Y-55601393D01*
X104068253Y-55621098D01*
X104051777Y-55639277D01*
X104033598Y-55655753D01*
X104013893Y-55670367D01*
X103992849Y-55682980D01*
X103970671Y-55693470D01*
X103947571Y-55701735D01*
X103923773Y-55707696D01*
X103899504Y-55711296D01*
X103875000Y-55712500D01*
X102625000Y-55712500D01*
X102600496Y-55711296D01*
X102576227Y-55707696D01*
X102552429Y-55701735D01*
X102529329Y-55693470D01*
X102507151Y-55682980D01*
X102486107Y-55670367D01*
X102466402Y-55655753D01*
X102448223Y-55639277D01*
X102431747Y-55621098D01*
X102417133Y-55601393D01*
X102404520Y-55580349D01*
X102394030Y-55558171D01*
X102385765Y-55535071D01*
X102379804Y-55511273D01*
X102376204Y-55487004D01*
X102375000Y-55462500D01*
X102375000Y-54537500D01*
X102376204Y-54512996D01*
X102379804Y-54488727D01*
X102385765Y-54464929D01*
X102394030Y-54441829D01*
X102404520Y-54419651D01*
X102417133Y-54398607D01*
X102431747Y-54378902D01*
X102448223Y-54360723D01*
X102466402Y-54344247D01*
X102486107Y-54329633D01*
X102507151Y-54317020D01*
X102529329Y-54306530D01*
X102552429Y-54298265D01*
X102576227Y-54292304D01*
X102600496Y-54288704D01*
X102625000Y-54287500D01*
X103875000Y-54287500D01*
X103899504Y-54288704D01*
X103899504Y-54288704D01*
G37*
D13*
X103250000Y-55000000D03*
D10*
G36*
X90899504Y-61801204D02*
G01*
X90923773Y-61804804D01*
X90947571Y-61810765D01*
X90970671Y-61819030D01*
X90992849Y-61829520D01*
X91013893Y-61842133D01*
X91033598Y-61856747D01*
X91051777Y-61873223D01*
X91068253Y-61891402D01*
X91082867Y-61911107D01*
X91095480Y-61932151D01*
X91105970Y-61954329D01*
X91114235Y-61977429D01*
X91120196Y-62001227D01*
X91123796Y-62025496D01*
X91125000Y-62050000D01*
X91125000Y-62975000D01*
X91123796Y-62999504D01*
X91120196Y-63023773D01*
X91114235Y-63047571D01*
X91105970Y-63070671D01*
X91095480Y-63092849D01*
X91082867Y-63113893D01*
X91068253Y-63133598D01*
X91051777Y-63151777D01*
X91033598Y-63168253D01*
X91013893Y-63182867D01*
X90992849Y-63195480D01*
X90970671Y-63205970D01*
X90947571Y-63214235D01*
X90923773Y-63220196D01*
X90899504Y-63223796D01*
X90875000Y-63225000D01*
X89625000Y-63225000D01*
X89600496Y-63223796D01*
X89576227Y-63220196D01*
X89552429Y-63214235D01*
X89529329Y-63205970D01*
X89507151Y-63195480D01*
X89486107Y-63182867D01*
X89466402Y-63168253D01*
X89448223Y-63151777D01*
X89431747Y-63133598D01*
X89417133Y-63113893D01*
X89404520Y-63092849D01*
X89394030Y-63070671D01*
X89385765Y-63047571D01*
X89379804Y-63023773D01*
X89376204Y-62999504D01*
X89375000Y-62975000D01*
X89375000Y-62050000D01*
X89376204Y-62025496D01*
X89379804Y-62001227D01*
X89385765Y-61977429D01*
X89394030Y-61954329D01*
X89404520Y-61932151D01*
X89417133Y-61911107D01*
X89431747Y-61891402D01*
X89448223Y-61873223D01*
X89466402Y-61856747D01*
X89486107Y-61842133D01*
X89507151Y-61829520D01*
X89529329Y-61819030D01*
X89552429Y-61810765D01*
X89576227Y-61804804D01*
X89600496Y-61801204D01*
X89625000Y-61800000D01*
X90875000Y-61800000D01*
X90899504Y-61801204D01*
X90899504Y-61801204D01*
G37*
D13*
X90250000Y-62512500D03*
D10*
G36*
X90899504Y-64776204D02*
G01*
X90923773Y-64779804D01*
X90947571Y-64785765D01*
X90970671Y-64794030D01*
X90992849Y-64804520D01*
X91013893Y-64817133D01*
X91033598Y-64831747D01*
X91051777Y-64848223D01*
X91068253Y-64866402D01*
X91082867Y-64886107D01*
X91095480Y-64907151D01*
X91105970Y-64929329D01*
X91114235Y-64952429D01*
X91120196Y-64976227D01*
X91123796Y-65000496D01*
X91125000Y-65025000D01*
X91125000Y-65950000D01*
X91123796Y-65974504D01*
X91120196Y-65998773D01*
X91114235Y-66022571D01*
X91105970Y-66045671D01*
X91095480Y-66067849D01*
X91082867Y-66088893D01*
X91068253Y-66108598D01*
X91051777Y-66126777D01*
X91033598Y-66143253D01*
X91013893Y-66157867D01*
X90992849Y-66170480D01*
X90970671Y-66180970D01*
X90947571Y-66189235D01*
X90923773Y-66195196D01*
X90899504Y-66198796D01*
X90875000Y-66200000D01*
X89625000Y-66200000D01*
X89600496Y-66198796D01*
X89576227Y-66195196D01*
X89552429Y-66189235D01*
X89529329Y-66180970D01*
X89507151Y-66170480D01*
X89486107Y-66157867D01*
X89466402Y-66143253D01*
X89448223Y-66126777D01*
X89431747Y-66108598D01*
X89417133Y-66088893D01*
X89404520Y-66067849D01*
X89394030Y-66045671D01*
X89385765Y-66022571D01*
X89379804Y-65998773D01*
X89376204Y-65974504D01*
X89375000Y-65950000D01*
X89375000Y-65025000D01*
X89376204Y-65000496D01*
X89379804Y-64976227D01*
X89385765Y-64952429D01*
X89394030Y-64929329D01*
X89404520Y-64907151D01*
X89417133Y-64886107D01*
X89431747Y-64866402D01*
X89448223Y-64848223D01*
X89466402Y-64831747D01*
X89486107Y-64817133D01*
X89507151Y-64804520D01*
X89529329Y-64794030D01*
X89552429Y-64785765D01*
X89576227Y-64779804D01*
X89600496Y-64776204D01*
X89625000Y-64775000D01*
X90875000Y-64775000D01*
X90899504Y-64776204D01*
X90899504Y-64776204D01*
G37*
D13*
X90250000Y-65487500D03*
D10*
G36*
X107987004Y-77126204D02*
G01*
X108011273Y-77129804D01*
X108035071Y-77135765D01*
X108058171Y-77144030D01*
X108080349Y-77154520D01*
X108101393Y-77167133D01*
X108121098Y-77181747D01*
X108139277Y-77198223D01*
X108155753Y-77216402D01*
X108170367Y-77236107D01*
X108182980Y-77257151D01*
X108193470Y-77279329D01*
X108201735Y-77302429D01*
X108207696Y-77326227D01*
X108211296Y-77350496D01*
X108212500Y-77375000D01*
X108212500Y-78625000D01*
X108211296Y-78649504D01*
X108207696Y-78673773D01*
X108201735Y-78697571D01*
X108193470Y-78720671D01*
X108182980Y-78742849D01*
X108170367Y-78763893D01*
X108155753Y-78783598D01*
X108139277Y-78801777D01*
X108121098Y-78818253D01*
X108101393Y-78832867D01*
X108080349Y-78845480D01*
X108058171Y-78855970D01*
X108035071Y-78864235D01*
X108011273Y-78870196D01*
X107987004Y-78873796D01*
X107962500Y-78875000D01*
X107037500Y-78875000D01*
X107012996Y-78873796D01*
X106988727Y-78870196D01*
X106964929Y-78864235D01*
X106941829Y-78855970D01*
X106919651Y-78845480D01*
X106898607Y-78832867D01*
X106878902Y-78818253D01*
X106860723Y-78801777D01*
X106844247Y-78783598D01*
X106829633Y-78763893D01*
X106817020Y-78742849D01*
X106806530Y-78720671D01*
X106798265Y-78697571D01*
X106792304Y-78673773D01*
X106788704Y-78649504D01*
X106787500Y-78625000D01*
X106787500Y-77375000D01*
X106788704Y-77350496D01*
X106792304Y-77326227D01*
X106798265Y-77302429D01*
X106806530Y-77279329D01*
X106817020Y-77257151D01*
X106829633Y-77236107D01*
X106844247Y-77216402D01*
X106860723Y-77198223D01*
X106878902Y-77181747D01*
X106898607Y-77167133D01*
X106919651Y-77154520D01*
X106941829Y-77144030D01*
X106964929Y-77135765D01*
X106988727Y-77129804D01*
X107012996Y-77126204D01*
X107037500Y-77125000D01*
X107962500Y-77125000D01*
X107987004Y-77126204D01*
X107987004Y-77126204D01*
G37*
D13*
X107500000Y-78000000D03*
D10*
G36*
X105012004Y-77126204D02*
G01*
X105036273Y-77129804D01*
X105060071Y-77135765D01*
X105083171Y-77144030D01*
X105105349Y-77154520D01*
X105126393Y-77167133D01*
X105146098Y-77181747D01*
X105164277Y-77198223D01*
X105180753Y-77216402D01*
X105195367Y-77236107D01*
X105207980Y-77257151D01*
X105218470Y-77279329D01*
X105226735Y-77302429D01*
X105232696Y-77326227D01*
X105236296Y-77350496D01*
X105237500Y-77375000D01*
X105237500Y-78625000D01*
X105236296Y-78649504D01*
X105232696Y-78673773D01*
X105226735Y-78697571D01*
X105218470Y-78720671D01*
X105207980Y-78742849D01*
X105195367Y-78763893D01*
X105180753Y-78783598D01*
X105164277Y-78801777D01*
X105146098Y-78818253D01*
X105126393Y-78832867D01*
X105105349Y-78845480D01*
X105083171Y-78855970D01*
X105060071Y-78864235D01*
X105036273Y-78870196D01*
X105012004Y-78873796D01*
X104987500Y-78875000D01*
X104062500Y-78875000D01*
X104037996Y-78873796D01*
X104013727Y-78870196D01*
X103989929Y-78864235D01*
X103966829Y-78855970D01*
X103944651Y-78845480D01*
X103923607Y-78832867D01*
X103903902Y-78818253D01*
X103885723Y-78801777D01*
X103869247Y-78783598D01*
X103854633Y-78763893D01*
X103842020Y-78742849D01*
X103831530Y-78720671D01*
X103823265Y-78697571D01*
X103817304Y-78673773D01*
X103813704Y-78649504D01*
X103812500Y-78625000D01*
X103812500Y-77375000D01*
X103813704Y-77350496D01*
X103817304Y-77326227D01*
X103823265Y-77302429D01*
X103831530Y-77279329D01*
X103842020Y-77257151D01*
X103854633Y-77236107D01*
X103869247Y-77216402D01*
X103885723Y-77198223D01*
X103903902Y-77181747D01*
X103923607Y-77167133D01*
X103944651Y-77154520D01*
X103966829Y-77144030D01*
X103989929Y-77135765D01*
X104013727Y-77129804D01*
X104037996Y-77126204D01*
X104062500Y-77125000D01*
X104987500Y-77125000D01*
X105012004Y-77126204D01*
X105012004Y-77126204D01*
G37*
D13*
X104525000Y-78000000D03*
D10*
G36*
X40224504Y-77876204D02*
G01*
X40248773Y-77879804D01*
X40272571Y-77885765D01*
X40295671Y-77894030D01*
X40317849Y-77904520D01*
X40338893Y-77917133D01*
X40358598Y-77931747D01*
X40376777Y-77948223D01*
X40393253Y-77966402D01*
X40407867Y-77986107D01*
X40420480Y-78007151D01*
X40430970Y-78029329D01*
X40439235Y-78052429D01*
X40445196Y-78076227D01*
X40448796Y-78100496D01*
X40450000Y-78125000D01*
X40450000Y-79375000D01*
X40448796Y-79399504D01*
X40445196Y-79423773D01*
X40439235Y-79447571D01*
X40430970Y-79470671D01*
X40420480Y-79492849D01*
X40407867Y-79513893D01*
X40393253Y-79533598D01*
X40376777Y-79551777D01*
X40358598Y-79568253D01*
X40338893Y-79582867D01*
X40317849Y-79595480D01*
X40295671Y-79605970D01*
X40272571Y-79614235D01*
X40248773Y-79620196D01*
X40224504Y-79623796D01*
X40200000Y-79625000D01*
X39275000Y-79625000D01*
X39250496Y-79623796D01*
X39226227Y-79620196D01*
X39202429Y-79614235D01*
X39179329Y-79605970D01*
X39157151Y-79595480D01*
X39136107Y-79582867D01*
X39116402Y-79568253D01*
X39098223Y-79551777D01*
X39081747Y-79533598D01*
X39067133Y-79513893D01*
X39054520Y-79492849D01*
X39044030Y-79470671D01*
X39035765Y-79447571D01*
X39029804Y-79423773D01*
X39026204Y-79399504D01*
X39025000Y-79375000D01*
X39025000Y-78125000D01*
X39026204Y-78100496D01*
X39029804Y-78076227D01*
X39035765Y-78052429D01*
X39044030Y-78029329D01*
X39054520Y-78007151D01*
X39067133Y-77986107D01*
X39081747Y-77966402D01*
X39098223Y-77948223D01*
X39116402Y-77931747D01*
X39136107Y-77917133D01*
X39157151Y-77904520D01*
X39179329Y-77894030D01*
X39202429Y-77885765D01*
X39226227Y-77879804D01*
X39250496Y-77876204D01*
X39275000Y-77875000D01*
X40200000Y-77875000D01*
X40224504Y-77876204D01*
X40224504Y-77876204D01*
G37*
D13*
X39737500Y-78750000D03*
D10*
G36*
X37249504Y-77876204D02*
G01*
X37273773Y-77879804D01*
X37297571Y-77885765D01*
X37320671Y-77894030D01*
X37342849Y-77904520D01*
X37363893Y-77917133D01*
X37383598Y-77931747D01*
X37401777Y-77948223D01*
X37418253Y-77966402D01*
X37432867Y-77986107D01*
X37445480Y-78007151D01*
X37455970Y-78029329D01*
X37464235Y-78052429D01*
X37470196Y-78076227D01*
X37473796Y-78100496D01*
X37475000Y-78125000D01*
X37475000Y-79375000D01*
X37473796Y-79399504D01*
X37470196Y-79423773D01*
X37464235Y-79447571D01*
X37455970Y-79470671D01*
X37445480Y-79492849D01*
X37432867Y-79513893D01*
X37418253Y-79533598D01*
X37401777Y-79551777D01*
X37383598Y-79568253D01*
X37363893Y-79582867D01*
X37342849Y-79595480D01*
X37320671Y-79605970D01*
X37297571Y-79614235D01*
X37273773Y-79620196D01*
X37249504Y-79623796D01*
X37225000Y-79625000D01*
X36300000Y-79625000D01*
X36275496Y-79623796D01*
X36251227Y-79620196D01*
X36227429Y-79614235D01*
X36204329Y-79605970D01*
X36182151Y-79595480D01*
X36161107Y-79582867D01*
X36141402Y-79568253D01*
X36123223Y-79551777D01*
X36106747Y-79533598D01*
X36092133Y-79513893D01*
X36079520Y-79492849D01*
X36069030Y-79470671D01*
X36060765Y-79447571D01*
X36054804Y-79423773D01*
X36051204Y-79399504D01*
X36050000Y-79375000D01*
X36050000Y-78125000D01*
X36051204Y-78100496D01*
X36054804Y-78076227D01*
X36060765Y-78052429D01*
X36069030Y-78029329D01*
X36079520Y-78007151D01*
X36092133Y-77986107D01*
X36106747Y-77966402D01*
X36123223Y-77948223D01*
X36141402Y-77931747D01*
X36161107Y-77917133D01*
X36182151Y-77904520D01*
X36204329Y-77894030D01*
X36227429Y-77885765D01*
X36251227Y-77879804D01*
X36275496Y-77876204D01*
X36300000Y-77875000D01*
X37225000Y-77875000D01*
X37249504Y-77876204D01*
X37249504Y-77876204D01*
G37*
D13*
X36762500Y-78750000D03*
D10*
G36*
X91899504Y-85813704D02*
G01*
X91923773Y-85817304D01*
X91947571Y-85823265D01*
X91970671Y-85831530D01*
X91992849Y-85842020D01*
X92013893Y-85854633D01*
X92033598Y-85869247D01*
X92051777Y-85885723D01*
X92068253Y-85903902D01*
X92082867Y-85923607D01*
X92095480Y-85944651D01*
X92105970Y-85966829D01*
X92114235Y-85989929D01*
X92120196Y-86013727D01*
X92123796Y-86037996D01*
X92125000Y-86062500D01*
X92125000Y-86987500D01*
X92123796Y-87012004D01*
X92120196Y-87036273D01*
X92114235Y-87060071D01*
X92105970Y-87083171D01*
X92095480Y-87105349D01*
X92082867Y-87126393D01*
X92068253Y-87146098D01*
X92051777Y-87164277D01*
X92033598Y-87180753D01*
X92013893Y-87195367D01*
X91992849Y-87207980D01*
X91970671Y-87218470D01*
X91947571Y-87226735D01*
X91923773Y-87232696D01*
X91899504Y-87236296D01*
X91875000Y-87237500D01*
X90625000Y-87237500D01*
X90600496Y-87236296D01*
X90576227Y-87232696D01*
X90552429Y-87226735D01*
X90529329Y-87218470D01*
X90507151Y-87207980D01*
X90486107Y-87195367D01*
X90466402Y-87180753D01*
X90448223Y-87164277D01*
X90431747Y-87146098D01*
X90417133Y-87126393D01*
X90404520Y-87105349D01*
X90394030Y-87083171D01*
X90385765Y-87060071D01*
X90379804Y-87036273D01*
X90376204Y-87012004D01*
X90375000Y-86987500D01*
X90375000Y-86062500D01*
X90376204Y-86037996D01*
X90379804Y-86013727D01*
X90385765Y-85989929D01*
X90394030Y-85966829D01*
X90404520Y-85944651D01*
X90417133Y-85923607D01*
X90431747Y-85903902D01*
X90448223Y-85885723D01*
X90466402Y-85869247D01*
X90486107Y-85854633D01*
X90507151Y-85842020D01*
X90529329Y-85831530D01*
X90552429Y-85823265D01*
X90576227Y-85817304D01*
X90600496Y-85813704D01*
X90625000Y-85812500D01*
X91875000Y-85812500D01*
X91899504Y-85813704D01*
X91899504Y-85813704D01*
G37*
D13*
X91250000Y-86525000D03*
D10*
G36*
X91899504Y-88788704D02*
G01*
X91923773Y-88792304D01*
X91947571Y-88798265D01*
X91970671Y-88806530D01*
X91992849Y-88817020D01*
X92013893Y-88829633D01*
X92033598Y-88844247D01*
X92051777Y-88860723D01*
X92068253Y-88878902D01*
X92082867Y-88898607D01*
X92095480Y-88919651D01*
X92105970Y-88941829D01*
X92114235Y-88964929D01*
X92120196Y-88988727D01*
X92123796Y-89012996D01*
X92125000Y-89037500D01*
X92125000Y-89962500D01*
X92123796Y-89987004D01*
X92120196Y-90011273D01*
X92114235Y-90035071D01*
X92105970Y-90058171D01*
X92095480Y-90080349D01*
X92082867Y-90101393D01*
X92068253Y-90121098D01*
X92051777Y-90139277D01*
X92033598Y-90155753D01*
X92013893Y-90170367D01*
X91992849Y-90182980D01*
X91970671Y-90193470D01*
X91947571Y-90201735D01*
X91923773Y-90207696D01*
X91899504Y-90211296D01*
X91875000Y-90212500D01*
X90625000Y-90212500D01*
X90600496Y-90211296D01*
X90576227Y-90207696D01*
X90552429Y-90201735D01*
X90529329Y-90193470D01*
X90507151Y-90182980D01*
X90486107Y-90170367D01*
X90466402Y-90155753D01*
X90448223Y-90139277D01*
X90431747Y-90121098D01*
X90417133Y-90101393D01*
X90404520Y-90080349D01*
X90394030Y-90058171D01*
X90385765Y-90035071D01*
X90379804Y-90011273D01*
X90376204Y-89987004D01*
X90375000Y-89962500D01*
X90375000Y-89037500D01*
X90376204Y-89012996D01*
X90379804Y-88988727D01*
X90385765Y-88964929D01*
X90394030Y-88941829D01*
X90404520Y-88919651D01*
X90417133Y-88898607D01*
X90431747Y-88878902D01*
X90448223Y-88860723D01*
X90466402Y-88844247D01*
X90486107Y-88829633D01*
X90507151Y-88817020D01*
X90529329Y-88806530D01*
X90552429Y-88798265D01*
X90576227Y-88792304D01*
X90600496Y-88788704D01*
X90625000Y-88787500D01*
X91875000Y-88787500D01*
X91899504Y-88788704D01*
X91899504Y-88788704D01*
G37*
D13*
X91250000Y-89500000D03*
D14*
X107500000Y-74000000D03*
X105000000Y-74000000D03*
D10*
G36*
X107349504Y-94201204D02*
G01*
X107373773Y-94204804D01*
X107397571Y-94210765D01*
X107420671Y-94219030D01*
X107442849Y-94229520D01*
X107463893Y-94242133D01*
X107483598Y-94256747D01*
X107501777Y-94273223D01*
X107518253Y-94291402D01*
X107532867Y-94311107D01*
X107545480Y-94332151D01*
X107555970Y-94354329D01*
X107564235Y-94377429D01*
X107570196Y-94401227D01*
X107573796Y-94425496D01*
X107575000Y-94450000D01*
X107575000Y-95550000D01*
X107573796Y-95574504D01*
X107570196Y-95598773D01*
X107564235Y-95622571D01*
X107555970Y-95645671D01*
X107545480Y-95667849D01*
X107532867Y-95688893D01*
X107518253Y-95708598D01*
X107501777Y-95726777D01*
X107483598Y-95743253D01*
X107463893Y-95757867D01*
X107442849Y-95770480D01*
X107420671Y-95780970D01*
X107397571Y-95789235D01*
X107373773Y-95795196D01*
X107349504Y-95798796D01*
X107325000Y-95800000D01*
X106175000Y-95800000D01*
X106150496Y-95798796D01*
X106126227Y-95795196D01*
X106102429Y-95789235D01*
X106079329Y-95780970D01*
X106057151Y-95770480D01*
X106036107Y-95757867D01*
X106016402Y-95743253D01*
X105998223Y-95726777D01*
X105981747Y-95708598D01*
X105967133Y-95688893D01*
X105954520Y-95667849D01*
X105944030Y-95645671D01*
X105935765Y-95622571D01*
X105929804Y-95598773D01*
X105926204Y-95574504D01*
X105925000Y-95550000D01*
X105925000Y-94450000D01*
X105926204Y-94425496D01*
X105929804Y-94401227D01*
X105935765Y-94377429D01*
X105944030Y-94354329D01*
X105954520Y-94332151D01*
X105967133Y-94311107D01*
X105981747Y-94291402D01*
X105998223Y-94273223D01*
X106016402Y-94256747D01*
X106036107Y-94242133D01*
X106057151Y-94229520D01*
X106079329Y-94219030D01*
X106102429Y-94210765D01*
X106126227Y-94204804D01*
X106150496Y-94201204D01*
X106175000Y-94200000D01*
X107325000Y-94200000D01*
X107349504Y-94201204D01*
X107349504Y-94201204D01*
G37*
D11*
X106750000Y-95000000D03*
D10*
G36*
X107349504Y-91351204D02*
G01*
X107373773Y-91354804D01*
X107397571Y-91360765D01*
X107420671Y-91369030D01*
X107442849Y-91379520D01*
X107463893Y-91392133D01*
X107483598Y-91406747D01*
X107501777Y-91423223D01*
X107518253Y-91441402D01*
X107532867Y-91461107D01*
X107545480Y-91482151D01*
X107555970Y-91504329D01*
X107564235Y-91527429D01*
X107570196Y-91551227D01*
X107573796Y-91575496D01*
X107575000Y-91600000D01*
X107575000Y-92700000D01*
X107573796Y-92724504D01*
X107570196Y-92748773D01*
X107564235Y-92772571D01*
X107555970Y-92795671D01*
X107545480Y-92817849D01*
X107532867Y-92838893D01*
X107518253Y-92858598D01*
X107501777Y-92876777D01*
X107483598Y-92893253D01*
X107463893Y-92907867D01*
X107442849Y-92920480D01*
X107420671Y-92930970D01*
X107397571Y-92939235D01*
X107373773Y-92945196D01*
X107349504Y-92948796D01*
X107325000Y-92950000D01*
X106175000Y-92950000D01*
X106150496Y-92948796D01*
X106126227Y-92945196D01*
X106102429Y-92939235D01*
X106079329Y-92930970D01*
X106057151Y-92920480D01*
X106036107Y-92907867D01*
X106016402Y-92893253D01*
X105998223Y-92876777D01*
X105981747Y-92858598D01*
X105967133Y-92838893D01*
X105954520Y-92817849D01*
X105944030Y-92795671D01*
X105935765Y-92772571D01*
X105929804Y-92748773D01*
X105926204Y-92724504D01*
X105925000Y-92700000D01*
X105925000Y-91600000D01*
X105926204Y-91575496D01*
X105929804Y-91551227D01*
X105935765Y-91527429D01*
X105944030Y-91504329D01*
X105954520Y-91482151D01*
X105967133Y-91461107D01*
X105981747Y-91441402D01*
X105998223Y-91423223D01*
X106016402Y-91406747D01*
X106036107Y-91392133D01*
X106057151Y-91379520D01*
X106079329Y-91369030D01*
X106102429Y-91360765D01*
X106126227Y-91354804D01*
X106150496Y-91351204D01*
X106175000Y-91350000D01*
X107325000Y-91350000D01*
X107349504Y-91351204D01*
X107349504Y-91351204D01*
G37*
D11*
X106750000Y-92150000D03*
D15*
X114000000Y-68000000D03*
X114000000Y-70500000D03*
X114000000Y-72500000D03*
X114000000Y-75000000D03*
D16*
X30025000Y-76500000D03*
D17*
X32725000Y-74850000D03*
X32725000Y-74200000D03*
X32725000Y-76800000D03*
X32725000Y-76150000D03*
X32725000Y-75500000D03*
D16*
X30025000Y-74500000D03*
D18*
X91150000Y-75750000D03*
X100850000Y-75750000D03*
D10*
G36*
X103899504Y-61326204D02*
G01*
X103923773Y-61329804D01*
X103947571Y-61335765D01*
X103970671Y-61344030D01*
X103992849Y-61354520D01*
X104013893Y-61367133D01*
X104033598Y-61381747D01*
X104051777Y-61398223D01*
X104068253Y-61416402D01*
X104082867Y-61436107D01*
X104095480Y-61457151D01*
X104105970Y-61479329D01*
X104114235Y-61502429D01*
X104120196Y-61526227D01*
X104123796Y-61550496D01*
X104125000Y-61575000D01*
X104125000Y-62325000D01*
X104123796Y-62349504D01*
X104120196Y-62373773D01*
X104114235Y-62397571D01*
X104105970Y-62420671D01*
X104095480Y-62442849D01*
X104082867Y-62463893D01*
X104068253Y-62483598D01*
X104051777Y-62501777D01*
X104033598Y-62518253D01*
X104013893Y-62532867D01*
X103992849Y-62545480D01*
X103970671Y-62555970D01*
X103947571Y-62564235D01*
X103923773Y-62570196D01*
X103899504Y-62573796D01*
X103875000Y-62575000D01*
X102625000Y-62575000D01*
X102600496Y-62573796D01*
X102576227Y-62570196D01*
X102552429Y-62564235D01*
X102529329Y-62555970D01*
X102507151Y-62545480D01*
X102486107Y-62532867D01*
X102466402Y-62518253D01*
X102448223Y-62501777D01*
X102431747Y-62483598D01*
X102417133Y-62463893D01*
X102404520Y-62442849D01*
X102394030Y-62420671D01*
X102385765Y-62397571D01*
X102379804Y-62373773D01*
X102376204Y-62349504D01*
X102375000Y-62325000D01*
X102375000Y-61575000D01*
X102376204Y-61550496D01*
X102379804Y-61526227D01*
X102385765Y-61502429D01*
X102394030Y-61479329D01*
X102404520Y-61457151D01*
X102417133Y-61436107D01*
X102431747Y-61416402D01*
X102448223Y-61398223D01*
X102466402Y-61381747D01*
X102486107Y-61367133D01*
X102507151Y-61354520D01*
X102529329Y-61344030D01*
X102552429Y-61335765D01*
X102576227Y-61329804D01*
X102600496Y-61326204D01*
X102625000Y-61325000D01*
X103875000Y-61325000D01*
X103899504Y-61326204D01*
X103899504Y-61326204D01*
G37*
D19*
X103250000Y-61950000D03*
D10*
G36*
X103899504Y-64126204D02*
G01*
X103923773Y-64129804D01*
X103947571Y-64135765D01*
X103970671Y-64144030D01*
X103992849Y-64154520D01*
X104013893Y-64167133D01*
X104033598Y-64181747D01*
X104051777Y-64198223D01*
X104068253Y-64216402D01*
X104082867Y-64236107D01*
X104095480Y-64257151D01*
X104105970Y-64279329D01*
X104114235Y-64302429D01*
X104120196Y-64326227D01*
X104123796Y-64350496D01*
X104125000Y-64375000D01*
X104125000Y-65125000D01*
X104123796Y-65149504D01*
X104120196Y-65173773D01*
X104114235Y-65197571D01*
X104105970Y-65220671D01*
X104095480Y-65242849D01*
X104082867Y-65263893D01*
X104068253Y-65283598D01*
X104051777Y-65301777D01*
X104033598Y-65318253D01*
X104013893Y-65332867D01*
X103992849Y-65345480D01*
X103970671Y-65355970D01*
X103947571Y-65364235D01*
X103923773Y-65370196D01*
X103899504Y-65373796D01*
X103875000Y-65375000D01*
X102625000Y-65375000D01*
X102600496Y-65373796D01*
X102576227Y-65370196D01*
X102552429Y-65364235D01*
X102529329Y-65355970D01*
X102507151Y-65345480D01*
X102486107Y-65332867D01*
X102466402Y-65318253D01*
X102448223Y-65301777D01*
X102431747Y-65283598D01*
X102417133Y-65263893D01*
X102404520Y-65242849D01*
X102394030Y-65220671D01*
X102385765Y-65197571D01*
X102379804Y-65173773D01*
X102376204Y-65149504D01*
X102375000Y-65125000D01*
X102375000Y-64375000D01*
X102376204Y-64350496D01*
X102379804Y-64326227D01*
X102385765Y-64302429D01*
X102394030Y-64279329D01*
X102404520Y-64257151D01*
X102417133Y-64236107D01*
X102431747Y-64216402D01*
X102448223Y-64198223D01*
X102466402Y-64181747D01*
X102486107Y-64167133D01*
X102507151Y-64154520D01*
X102529329Y-64144030D01*
X102552429Y-64135765D01*
X102576227Y-64129804D01*
X102600496Y-64126204D01*
X102625000Y-64125000D01*
X103875000Y-64125000D01*
X103899504Y-64126204D01*
X103899504Y-64126204D01*
G37*
D19*
X103250000Y-64750000D03*
D10*
G36*
X107899504Y-64176204D02*
G01*
X107923773Y-64179804D01*
X107947571Y-64185765D01*
X107970671Y-64194030D01*
X107992849Y-64204520D01*
X108013893Y-64217133D01*
X108033598Y-64231747D01*
X108051777Y-64248223D01*
X108068253Y-64266402D01*
X108082867Y-64286107D01*
X108095480Y-64307151D01*
X108105970Y-64329329D01*
X108114235Y-64352429D01*
X108120196Y-64376227D01*
X108123796Y-64400496D01*
X108125000Y-64425000D01*
X108125000Y-65175000D01*
X108123796Y-65199504D01*
X108120196Y-65223773D01*
X108114235Y-65247571D01*
X108105970Y-65270671D01*
X108095480Y-65292849D01*
X108082867Y-65313893D01*
X108068253Y-65333598D01*
X108051777Y-65351777D01*
X108033598Y-65368253D01*
X108013893Y-65382867D01*
X107992849Y-65395480D01*
X107970671Y-65405970D01*
X107947571Y-65414235D01*
X107923773Y-65420196D01*
X107899504Y-65423796D01*
X107875000Y-65425000D01*
X106625000Y-65425000D01*
X106600496Y-65423796D01*
X106576227Y-65420196D01*
X106552429Y-65414235D01*
X106529329Y-65405970D01*
X106507151Y-65395480D01*
X106486107Y-65382867D01*
X106466402Y-65368253D01*
X106448223Y-65351777D01*
X106431747Y-65333598D01*
X106417133Y-65313893D01*
X106404520Y-65292849D01*
X106394030Y-65270671D01*
X106385765Y-65247571D01*
X106379804Y-65223773D01*
X106376204Y-65199504D01*
X106375000Y-65175000D01*
X106375000Y-64425000D01*
X106376204Y-64400496D01*
X106379804Y-64376227D01*
X106385765Y-64352429D01*
X106394030Y-64329329D01*
X106404520Y-64307151D01*
X106417133Y-64286107D01*
X106431747Y-64266402D01*
X106448223Y-64248223D01*
X106466402Y-64231747D01*
X106486107Y-64217133D01*
X106507151Y-64204520D01*
X106529329Y-64194030D01*
X106552429Y-64185765D01*
X106576227Y-64179804D01*
X106600496Y-64176204D01*
X106625000Y-64175000D01*
X107875000Y-64175000D01*
X107899504Y-64176204D01*
X107899504Y-64176204D01*
G37*
D19*
X107250000Y-64800000D03*
D10*
G36*
X107899504Y-61376204D02*
G01*
X107923773Y-61379804D01*
X107947571Y-61385765D01*
X107970671Y-61394030D01*
X107992849Y-61404520D01*
X108013893Y-61417133D01*
X108033598Y-61431747D01*
X108051777Y-61448223D01*
X108068253Y-61466402D01*
X108082867Y-61486107D01*
X108095480Y-61507151D01*
X108105970Y-61529329D01*
X108114235Y-61552429D01*
X108120196Y-61576227D01*
X108123796Y-61600496D01*
X108125000Y-61625000D01*
X108125000Y-62375000D01*
X108123796Y-62399504D01*
X108120196Y-62423773D01*
X108114235Y-62447571D01*
X108105970Y-62470671D01*
X108095480Y-62492849D01*
X108082867Y-62513893D01*
X108068253Y-62533598D01*
X108051777Y-62551777D01*
X108033598Y-62568253D01*
X108013893Y-62582867D01*
X107992849Y-62595480D01*
X107970671Y-62605970D01*
X107947571Y-62614235D01*
X107923773Y-62620196D01*
X107899504Y-62623796D01*
X107875000Y-62625000D01*
X106625000Y-62625000D01*
X106600496Y-62623796D01*
X106576227Y-62620196D01*
X106552429Y-62614235D01*
X106529329Y-62605970D01*
X106507151Y-62595480D01*
X106486107Y-62582867D01*
X106466402Y-62568253D01*
X106448223Y-62551777D01*
X106431747Y-62533598D01*
X106417133Y-62513893D01*
X106404520Y-62492849D01*
X106394030Y-62470671D01*
X106385765Y-62447571D01*
X106379804Y-62423773D01*
X106376204Y-62399504D01*
X106375000Y-62375000D01*
X106375000Y-61625000D01*
X106376204Y-61600496D01*
X106379804Y-61576227D01*
X106385765Y-61552429D01*
X106394030Y-61529329D01*
X106404520Y-61507151D01*
X106417133Y-61486107D01*
X106431747Y-61466402D01*
X106448223Y-61448223D01*
X106466402Y-61431747D01*
X106486107Y-61417133D01*
X106507151Y-61404520D01*
X106529329Y-61394030D01*
X106552429Y-61385765D01*
X106576227Y-61379804D01*
X106600496Y-61376204D01*
X106625000Y-61375000D01*
X107875000Y-61375000D01*
X107899504Y-61376204D01*
X107899504Y-61376204D01*
G37*
D19*
X107250000Y-62000000D03*
D10*
G36*
X105099504Y-70126204D02*
G01*
X105123773Y-70129804D01*
X105147571Y-70135765D01*
X105170671Y-70144030D01*
X105192849Y-70154520D01*
X105213893Y-70167133D01*
X105233598Y-70181747D01*
X105251777Y-70198223D01*
X105268253Y-70216402D01*
X105282867Y-70236107D01*
X105295480Y-70257151D01*
X105305970Y-70279329D01*
X105314235Y-70302429D01*
X105320196Y-70326227D01*
X105323796Y-70350496D01*
X105325000Y-70375000D01*
X105325000Y-71625000D01*
X105323796Y-71649504D01*
X105320196Y-71673773D01*
X105314235Y-71697571D01*
X105305970Y-71720671D01*
X105295480Y-71742849D01*
X105282867Y-71763893D01*
X105268253Y-71783598D01*
X105251777Y-71801777D01*
X105233598Y-71818253D01*
X105213893Y-71832867D01*
X105192849Y-71845480D01*
X105170671Y-71855970D01*
X105147571Y-71864235D01*
X105123773Y-71870196D01*
X105099504Y-71873796D01*
X105075000Y-71875000D01*
X104325000Y-71875000D01*
X104300496Y-71873796D01*
X104276227Y-71870196D01*
X104252429Y-71864235D01*
X104229329Y-71855970D01*
X104207151Y-71845480D01*
X104186107Y-71832867D01*
X104166402Y-71818253D01*
X104148223Y-71801777D01*
X104131747Y-71783598D01*
X104117133Y-71763893D01*
X104104520Y-71742849D01*
X104094030Y-71720671D01*
X104085765Y-71697571D01*
X104079804Y-71673773D01*
X104076204Y-71649504D01*
X104075000Y-71625000D01*
X104075000Y-70375000D01*
X104076204Y-70350496D01*
X104079804Y-70326227D01*
X104085765Y-70302429D01*
X104094030Y-70279329D01*
X104104520Y-70257151D01*
X104117133Y-70236107D01*
X104131747Y-70216402D01*
X104148223Y-70198223D01*
X104166402Y-70181747D01*
X104186107Y-70167133D01*
X104207151Y-70154520D01*
X104229329Y-70144030D01*
X104252429Y-70135765D01*
X104276227Y-70129804D01*
X104300496Y-70126204D01*
X104325000Y-70125000D01*
X105075000Y-70125000D01*
X105099504Y-70126204D01*
X105099504Y-70126204D01*
G37*
D19*
X104700000Y-71000000D03*
D10*
G36*
X107899504Y-70126204D02*
G01*
X107923773Y-70129804D01*
X107947571Y-70135765D01*
X107970671Y-70144030D01*
X107992849Y-70154520D01*
X108013893Y-70167133D01*
X108033598Y-70181747D01*
X108051777Y-70198223D01*
X108068253Y-70216402D01*
X108082867Y-70236107D01*
X108095480Y-70257151D01*
X108105970Y-70279329D01*
X108114235Y-70302429D01*
X108120196Y-70326227D01*
X108123796Y-70350496D01*
X108125000Y-70375000D01*
X108125000Y-71625000D01*
X108123796Y-71649504D01*
X108120196Y-71673773D01*
X108114235Y-71697571D01*
X108105970Y-71720671D01*
X108095480Y-71742849D01*
X108082867Y-71763893D01*
X108068253Y-71783598D01*
X108051777Y-71801777D01*
X108033598Y-71818253D01*
X108013893Y-71832867D01*
X107992849Y-71845480D01*
X107970671Y-71855970D01*
X107947571Y-71864235D01*
X107923773Y-71870196D01*
X107899504Y-71873796D01*
X107875000Y-71875000D01*
X107125000Y-71875000D01*
X107100496Y-71873796D01*
X107076227Y-71870196D01*
X107052429Y-71864235D01*
X107029329Y-71855970D01*
X107007151Y-71845480D01*
X106986107Y-71832867D01*
X106966402Y-71818253D01*
X106948223Y-71801777D01*
X106931747Y-71783598D01*
X106917133Y-71763893D01*
X106904520Y-71742849D01*
X106894030Y-71720671D01*
X106885765Y-71697571D01*
X106879804Y-71673773D01*
X106876204Y-71649504D01*
X106875000Y-71625000D01*
X106875000Y-70375000D01*
X106876204Y-70350496D01*
X106879804Y-70326227D01*
X106885765Y-70302429D01*
X106894030Y-70279329D01*
X106904520Y-70257151D01*
X106917133Y-70236107D01*
X106931747Y-70216402D01*
X106948223Y-70198223D01*
X106966402Y-70181747D01*
X106986107Y-70167133D01*
X107007151Y-70154520D01*
X107029329Y-70144030D01*
X107052429Y-70135765D01*
X107076227Y-70129804D01*
X107100496Y-70126204D01*
X107125000Y-70125000D01*
X107875000Y-70125000D01*
X107899504Y-70126204D01*
X107899504Y-70126204D01*
G37*
D19*
X107500000Y-71000000D03*
D10*
G36*
X105099504Y-66876204D02*
G01*
X105123773Y-66879804D01*
X105147571Y-66885765D01*
X105170671Y-66894030D01*
X105192849Y-66904520D01*
X105213893Y-66917133D01*
X105233598Y-66931747D01*
X105251777Y-66948223D01*
X105268253Y-66966402D01*
X105282867Y-66986107D01*
X105295480Y-67007151D01*
X105305970Y-67029329D01*
X105314235Y-67052429D01*
X105320196Y-67076227D01*
X105323796Y-67100496D01*
X105325000Y-67125000D01*
X105325000Y-68375000D01*
X105323796Y-68399504D01*
X105320196Y-68423773D01*
X105314235Y-68447571D01*
X105305970Y-68470671D01*
X105295480Y-68492849D01*
X105282867Y-68513893D01*
X105268253Y-68533598D01*
X105251777Y-68551777D01*
X105233598Y-68568253D01*
X105213893Y-68582867D01*
X105192849Y-68595480D01*
X105170671Y-68605970D01*
X105147571Y-68614235D01*
X105123773Y-68620196D01*
X105099504Y-68623796D01*
X105075000Y-68625000D01*
X104325000Y-68625000D01*
X104300496Y-68623796D01*
X104276227Y-68620196D01*
X104252429Y-68614235D01*
X104229329Y-68605970D01*
X104207151Y-68595480D01*
X104186107Y-68582867D01*
X104166402Y-68568253D01*
X104148223Y-68551777D01*
X104131747Y-68533598D01*
X104117133Y-68513893D01*
X104104520Y-68492849D01*
X104094030Y-68470671D01*
X104085765Y-68447571D01*
X104079804Y-68423773D01*
X104076204Y-68399504D01*
X104075000Y-68375000D01*
X104075000Y-67125000D01*
X104076204Y-67100496D01*
X104079804Y-67076227D01*
X104085765Y-67052429D01*
X104094030Y-67029329D01*
X104104520Y-67007151D01*
X104117133Y-66986107D01*
X104131747Y-66966402D01*
X104148223Y-66948223D01*
X104166402Y-66931747D01*
X104186107Y-66917133D01*
X104207151Y-66904520D01*
X104229329Y-66894030D01*
X104252429Y-66885765D01*
X104276227Y-66879804D01*
X104300496Y-66876204D01*
X104325000Y-66875000D01*
X105075000Y-66875000D01*
X105099504Y-66876204D01*
X105099504Y-66876204D01*
G37*
D19*
X104700000Y-67750000D03*
D10*
G36*
X107899504Y-66876204D02*
G01*
X107923773Y-66879804D01*
X107947571Y-66885765D01*
X107970671Y-66894030D01*
X107992849Y-66904520D01*
X108013893Y-66917133D01*
X108033598Y-66931747D01*
X108051777Y-66948223D01*
X108068253Y-66966402D01*
X108082867Y-66986107D01*
X108095480Y-67007151D01*
X108105970Y-67029329D01*
X108114235Y-67052429D01*
X108120196Y-67076227D01*
X108123796Y-67100496D01*
X108125000Y-67125000D01*
X108125000Y-68375000D01*
X108123796Y-68399504D01*
X108120196Y-68423773D01*
X108114235Y-68447571D01*
X108105970Y-68470671D01*
X108095480Y-68492849D01*
X108082867Y-68513893D01*
X108068253Y-68533598D01*
X108051777Y-68551777D01*
X108033598Y-68568253D01*
X108013893Y-68582867D01*
X107992849Y-68595480D01*
X107970671Y-68605970D01*
X107947571Y-68614235D01*
X107923773Y-68620196D01*
X107899504Y-68623796D01*
X107875000Y-68625000D01*
X107125000Y-68625000D01*
X107100496Y-68623796D01*
X107076227Y-68620196D01*
X107052429Y-68614235D01*
X107029329Y-68605970D01*
X107007151Y-68595480D01*
X106986107Y-68582867D01*
X106966402Y-68568253D01*
X106948223Y-68551777D01*
X106931747Y-68533598D01*
X106917133Y-68513893D01*
X106904520Y-68492849D01*
X106894030Y-68470671D01*
X106885765Y-68447571D01*
X106879804Y-68423773D01*
X106876204Y-68399504D01*
X106875000Y-68375000D01*
X106875000Y-67125000D01*
X106876204Y-67100496D01*
X106879804Y-67076227D01*
X106885765Y-67052429D01*
X106894030Y-67029329D01*
X106904520Y-67007151D01*
X106917133Y-66986107D01*
X106931747Y-66966402D01*
X106948223Y-66948223D01*
X106966402Y-66931747D01*
X106986107Y-66917133D01*
X107007151Y-66904520D01*
X107029329Y-66894030D01*
X107052429Y-66885765D01*
X107076227Y-66879804D01*
X107100496Y-66876204D01*
X107125000Y-66875000D01*
X107875000Y-66875000D01*
X107899504Y-66876204D01*
X107899504Y-66876204D01*
G37*
D19*
X107500000Y-67750000D03*
D10*
G36*
X103649504Y-88626204D02*
G01*
X103673773Y-88629804D01*
X103697571Y-88635765D01*
X103720671Y-88644030D01*
X103742849Y-88654520D01*
X103763893Y-88667133D01*
X103783598Y-88681747D01*
X103801777Y-88698223D01*
X103818253Y-88716402D01*
X103832867Y-88736107D01*
X103845480Y-88757151D01*
X103855970Y-88779329D01*
X103864235Y-88802429D01*
X103870196Y-88826227D01*
X103873796Y-88850496D01*
X103875000Y-88875000D01*
X103875000Y-89625000D01*
X103873796Y-89649504D01*
X103870196Y-89673773D01*
X103864235Y-89697571D01*
X103855970Y-89720671D01*
X103845480Y-89742849D01*
X103832867Y-89763893D01*
X103818253Y-89783598D01*
X103801777Y-89801777D01*
X103783598Y-89818253D01*
X103763893Y-89832867D01*
X103742849Y-89845480D01*
X103720671Y-89855970D01*
X103697571Y-89864235D01*
X103673773Y-89870196D01*
X103649504Y-89873796D01*
X103625000Y-89875000D01*
X102375000Y-89875000D01*
X102350496Y-89873796D01*
X102326227Y-89870196D01*
X102302429Y-89864235D01*
X102279329Y-89855970D01*
X102257151Y-89845480D01*
X102236107Y-89832867D01*
X102216402Y-89818253D01*
X102198223Y-89801777D01*
X102181747Y-89783598D01*
X102167133Y-89763893D01*
X102154520Y-89742849D01*
X102144030Y-89720671D01*
X102135765Y-89697571D01*
X102129804Y-89673773D01*
X102126204Y-89649504D01*
X102125000Y-89625000D01*
X102125000Y-88875000D01*
X102126204Y-88850496D01*
X102129804Y-88826227D01*
X102135765Y-88802429D01*
X102144030Y-88779329D01*
X102154520Y-88757151D01*
X102167133Y-88736107D01*
X102181747Y-88716402D01*
X102198223Y-88698223D01*
X102216402Y-88681747D01*
X102236107Y-88667133D01*
X102257151Y-88654520D01*
X102279329Y-88644030D01*
X102302429Y-88635765D01*
X102326227Y-88629804D01*
X102350496Y-88626204D01*
X102375000Y-88625000D01*
X103625000Y-88625000D01*
X103649504Y-88626204D01*
X103649504Y-88626204D01*
G37*
D19*
X103000000Y-89250000D03*
D10*
G36*
X103649504Y-85826204D02*
G01*
X103673773Y-85829804D01*
X103697571Y-85835765D01*
X103720671Y-85844030D01*
X103742849Y-85854520D01*
X103763893Y-85867133D01*
X103783598Y-85881747D01*
X103801777Y-85898223D01*
X103818253Y-85916402D01*
X103832867Y-85936107D01*
X103845480Y-85957151D01*
X103855970Y-85979329D01*
X103864235Y-86002429D01*
X103870196Y-86026227D01*
X103873796Y-86050496D01*
X103875000Y-86075000D01*
X103875000Y-86825000D01*
X103873796Y-86849504D01*
X103870196Y-86873773D01*
X103864235Y-86897571D01*
X103855970Y-86920671D01*
X103845480Y-86942849D01*
X103832867Y-86963893D01*
X103818253Y-86983598D01*
X103801777Y-87001777D01*
X103783598Y-87018253D01*
X103763893Y-87032867D01*
X103742849Y-87045480D01*
X103720671Y-87055970D01*
X103697571Y-87064235D01*
X103673773Y-87070196D01*
X103649504Y-87073796D01*
X103625000Y-87075000D01*
X102375000Y-87075000D01*
X102350496Y-87073796D01*
X102326227Y-87070196D01*
X102302429Y-87064235D01*
X102279329Y-87055970D01*
X102257151Y-87045480D01*
X102236107Y-87032867D01*
X102216402Y-87018253D01*
X102198223Y-87001777D01*
X102181747Y-86983598D01*
X102167133Y-86963893D01*
X102154520Y-86942849D01*
X102144030Y-86920671D01*
X102135765Y-86897571D01*
X102129804Y-86873773D01*
X102126204Y-86849504D01*
X102125000Y-86825000D01*
X102125000Y-86075000D01*
X102126204Y-86050496D01*
X102129804Y-86026227D01*
X102135765Y-86002429D01*
X102144030Y-85979329D01*
X102154520Y-85957151D01*
X102167133Y-85936107D01*
X102181747Y-85916402D01*
X102198223Y-85898223D01*
X102216402Y-85881747D01*
X102236107Y-85867133D01*
X102257151Y-85854520D01*
X102279329Y-85844030D01*
X102302429Y-85835765D01*
X102326227Y-85829804D01*
X102350496Y-85826204D01*
X102375000Y-85825000D01*
X103625000Y-85825000D01*
X103649504Y-85826204D01*
X103649504Y-85826204D01*
G37*
D19*
X103000000Y-86450000D03*
D10*
G36*
X107399504Y-85876204D02*
G01*
X107423773Y-85879804D01*
X107447571Y-85885765D01*
X107470671Y-85894030D01*
X107492849Y-85904520D01*
X107513893Y-85917133D01*
X107533598Y-85931747D01*
X107551777Y-85948223D01*
X107568253Y-85966402D01*
X107582867Y-85986107D01*
X107595480Y-86007151D01*
X107605970Y-86029329D01*
X107614235Y-86052429D01*
X107620196Y-86076227D01*
X107623796Y-86100496D01*
X107625000Y-86125000D01*
X107625000Y-86875000D01*
X107623796Y-86899504D01*
X107620196Y-86923773D01*
X107614235Y-86947571D01*
X107605970Y-86970671D01*
X107595480Y-86992849D01*
X107582867Y-87013893D01*
X107568253Y-87033598D01*
X107551777Y-87051777D01*
X107533598Y-87068253D01*
X107513893Y-87082867D01*
X107492849Y-87095480D01*
X107470671Y-87105970D01*
X107447571Y-87114235D01*
X107423773Y-87120196D01*
X107399504Y-87123796D01*
X107375000Y-87125000D01*
X106125000Y-87125000D01*
X106100496Y-87123796D01*
X106076227Y-87120196D01*
X106052429Y-87114235D01*
X106029329Y-87105970D01*
X106007151Y-87095480D01*
X105986107Y-87082867D01*
X105966402Y-87068253D01*
X105948223Y-87051777D01*
X105931747Y-87033598D01*
X105917133Y-87013893D01*
X105904520Y-86992849D01*
X105894030Y-86970671D01*
X105885765Y-86947571D01*
X105879804Y-86923773D01*
X105876204Y-86899504D01*
X105875000Y-86875000D01*
X105875000Y-86125000D01*
X105876204Y-86100496D01*
X105879804Y-86076227D01*
X105885765Y-86052429D01*
X105894030Y-86029329D01*
X105904520Y-86007151D01*
X105917133Y-85986107D01*
X105931747Y-85966402D01*
X105948223Y-85948223D01*
X105966402Y-85931747D01*
X105986107Y-85917133D01*
X106007151Y-85904520D01*
X106029329Y-85894030D01*
X106052429Y-85885765D01*
X106076227Y-85879804D01*
X106100496Y-85876204D01*
X106125000Y-85875000D01*
X107375000Y-85875000D01*
X107399504Y-85876204D01*
X107399504Y-85876204D01*
G37*
D19*
X106750000Y-86500000D03*
D10*
G36*
X107399504Y-88676204D02*
G01*
X107423773Y-88679804D01*
X107447571Y-88685765D01*
X107470671Y-88694030D01*
X107492849Y-88704520D01*
X107513893Y-88717133D01*
X107533598Y-88731747D01*
X107551777Y-88748223D01*
X107568253Y-88766402D01*
X107582867Y-88786107D01*
X107595480Y-88807151D01*
X107605970Y-88829329D01*
X107614235Y-88852429D01*
X107620196Y-88876227D01*
X107623796Y-88900496D01*
X107625000Y-88925000D01*
X107625000Y-89675000D01*
X107623796Y-89699504D01*
X107620196Y-89723773D01*
X107614235Y-89747571D01*
X107605970Y-89770671D01*
X107595480Y-89792849D01*
X107582867Y-89813893D01*
X107568253Y-89833598D01*
X107551777Y-89851777D01*
X107533598Y-89868253D01*
X107513893Y-89882867D01*
X107492849Y-89895480D01*
X107470671Y-89905970D01*
X107447571Y-89914235D01*
X107423773Y-89920196D01*
X107399504Y-89923796D01*
X107375000Y-89925000D01*
X106125000Y-89925000D01*
X106100496Y-89923796D01*
X106076227Y-89920196D01*
X106052429Y-89914235D01*
X106029329Y-89905970D01*
X106007151Y-89895480D01*
X105986107Y-89882867D01*
X105966402Y-89868253D01*
X105948223Y-89851777D01*
X105931747Y-89833598D01*
X105917133Y-89813893D01*
X105904520Y-89792849D01*
X105894030Y-89770671D01*
X105885765Y-89747571D01*
X105879804Y-89723773D01*
X105876204Y-89699504D01*
X105875000Y-89675000D01*
X105875000Y-88925000D01*
X105876204Y-88900496D01*
X105879804Y-88876227D01*
X105885765Y-88852429D01*
X105894030Y-88829329D01*
X105904520Y-88807151D01*
X105917133Y-88786107D01*
X105931747Y-88766402D01*
X105948223Y-88748223D01*
X105966402Y-88731747D01*
X105986107Y-88717133D01*
X106007151Y-88704520D01*
X106029329Y-88694030D01*
X106052429Y-88685765D01*
X106076227Y-88679804D01*
X106100496Y-88676204D01*
X106125000Y-88675000D01*
X107375000Y-88675000D01*
X107399504Y-88676204D01*
X107399504Y-88676204D01*
G37*
D19*
X106750000Y-89300000D03*
D10*
G36*
X91899504Y-91126204D02*
G01*
X91923773Y-91129804D01*
X91947571Y-91135765D01*
X91970671Y-91144030D01*
X91992849Y-91154520D01*
X92013893Y-91167133D01*
X92033598Y-91181747D01*
X92051777Y-91198223D01*
X92068253Y-91216402D01*
X92082867Y-91236107D01*
X92095480Y-91257151D01*
X92105970Y-91279329D01*
X92114235Y-91302429D01*
X92120196Y-91326227D01*
X92123796Y-91350496D01*
X92125000Y-91375000D01*
X92125000Y-92125000D01*
X92123796Y-92149504D01*
X92120196Y-92173773D01*
X92114235Y-92197571D01*
X92105970Y-92220671D01*
X92095480Y-92242849D01*
X92082867Y-92263893D01*
X92068253Y-92283598D01*
X92051777Y-92301777D01*
X92033598Y-92318253D01*
X92013893Y-92332867D01*
X91992849Y-92345480D01*
X91970671Y-92355970D01*
X91947571Y-92364235D01*
X91923773Y-92370196D01*
X91899504Y-92373796D01*
X91875000Y-92375000D01*
X90625000Y-92375000D01*
X90600496Y-92373796D01*
X90576227Y-92370196D01*
X90552429Y-92364235D01*
X90529329Y-92355970D01*
X90507151Y-92345480D01*
X90486107Y-92332867D01*
X90466402Y-92318253D01*
X90448223Y-92301777D01*
X90431747Y-92283598D01*
X90417133Y-92263893D01*
X90404520Y-92242849D01*
X90394030Y-92220671D01*
X90385765Y-92197571D01*
X90379804Y-92173773D01*
X90376204Y-92149504D01*
X90375000Y-92125000D01*
X90375000Y-91375000D01*
X90376204Y-91350496D01*
X90379804Y-91326227D01*
X90385765Y-91302429D01*
X90394030Y-91279329D01*
X90404520Y-91257151D01*
X90417133Y-91236107D01*
X90431747Y-91216402D01*
X90448223Y-91198223D01*
X90466402Y-91181747D01*
X90486107Y-91167133D01*
X90507151Y-91154520D01*
X90529329Y-91144030D01*
X90552429Y-91135765D01*
X90576227Y-91129804D01*
X90600496Y-91126204D01*
X90625000Y-91125000D01*
X91875000Y-91125000D01*
X91899504Y-91126204D01*
X91899504Y-91126204D01*
G37*
D19*
X91250000Y-91750000D03*
D10*
G36*
X91899504Y-93926204D02*
G01*
X91923773Y-93929804D01*
X91947571Y-93935765D01*
X91970671Y-93944030D01*
X91992849Y-93954520D01*
X92013893Y-93967133D01*
X92033598Y-93981747D01*
X92051777Y-93998223D01*
X92068253Y-94016402D01*
X92082867Y-94036107D01*
X92095480Y-94057151D01*
X92105970Y-94079329D01*
X92114235Y-94102429D01*
X92120196Y-94126227D01*
X92123796Y-94150496D01*
X92125000Y-94175000D01*
X92125000Y-94925000D01*
X92123796Y-94949504D01*
X92120196Y-94973773D01*
X92114235Y-94997571D01*
X92105970Y-95020671D01*
X92095480Y-95042849D01*
X92082867Y-95063893D01*
X92068253Y-95083598D01*
X92051777Y-95101777D01*
X92033598Y-95118253D01*
X92013893Y-95132867D01*
X91992849Y-95145480D01*
X91970671Y-95155970D01*
X91947571Y-95164235D01*
X91923773Y-95170196D01*
X91899504Y-95173796D01*
X91875000Y-95175000D01*
X90625000Y-95175000D01*
X90600496Y-95173796D01*
X90576227Y-95170196D01*
X90552429Y-95164235D01*
X90529329Y-95155970D01*
X90507151Y-95145480D01*
X90486107Y-95132867D01*
X90466402Y-95118253D01*
X90448223Y-95101777D01*
X90431747Y-95083598D01*
X90417133Y-95063893D01*
X90404520Y-95042849D01*
X90394030Y-95020671D01*
X90385765Y-94997571D01*
X90379804Y-94973773D01*
X90376204Y-94949504D01*
X90375000Y-94925000D01*
X90375000Y-94175000D01*
X90376204Y-94150496D01*
X90379804Y-94126227D01*
X90385765Y-94102429D01*
X90394030Y-94079329D01*
X90404520Y-94057151D01*
X90417133Y-94036107D01*
X90431747Y-94016402D01*
X90448223Y-93998223D01*
X90466402Y-93981747D01*
X90486107Y-93967133D01*
X90507151Y-93954520D01*
X90529329Y-93944030D01*
X90552429Y-93935765D01*
X90576227Y-93929804D01*
X90600496Y-93926204D01*
X90625000Y-93925000D01*
X91875000Y-93925000D01*
X91899504Y-93926204D01*
X91899504Y-93926204D01*
G37*
D19*
X91250000Y-94550000D03*
D10*
G36*
X99449504Y-83126204D02*
G01*
X99473773Y-83129804D01*
X99497571Y-83135765D01*
X99520671Y-83144030D01*
X99542849Y-83154520D01*
X99563893Y-83167133D01*
X99583598Y-83181747D01*
X99601777Y-83198223D01*
X99618253Y-83216402D01*
X99632867Y-83236107D01*
X99645480Y-83257151D01*
X99655970Y-83279329D01*
X99664235Y-83302429D01*
X99670196Y-83326227D01*
X99673796Y-83350496D01*
X99675000Y-83375000D01*
X99675000Y-84625000D01*
X99673796Y-84649504D01*
X99670196Y-84673773D01*
X99664235Y-84697571D01*
X99655970Y-84720671D01*
X99645480Y-84742849D01*
X99632867Y-84763893D01*
X99618253Y-84783598D01*
X99601777Y-84801777D01*
X99583598Y-84818253D01*
X99563893Y-84832867D01*
X99542849Y-84845480D01*
X99520671Y-84855970D01*
X99497571Y-84864235D01*
X99473773Y-84870196D01*
X99449504Y-84873796D01*
X99425000Y-84875000D01*
X98675000Y-84875000D01*
X98650496Y-84873796D01*
X98626227Y-84870196D01*
X98602429Y-84864235D01*
X98579329Y-84855970D01*
X98557151Y-84845480D01*
X98536107Y-84832867D01*
X98516402Y-84818253D01*
X98498223Y-84801777D01*
X98481747Y-84783598D01*
X98467133Y-84763893D01*
X98454520Y-84742849D01*
X98444030Y-84720671D01*
X98435765Y-84697571D01*
X98429804Y-84673773D01*
X98426204Y-84649504D01*
X98425000Y-84625000D01*
X98425000Y-83375000D01*
X98426204Y-83350496D01*
X98429804Y-83326227D01*
X98435765Y-83302429D01*
X98444030Y-83279329D01*
X98454520Y-83257151D01*
X98467133Y-83236107D01*
X98481747Y-83216402D01*
X98498223Y-83198223D01*
X98516402Y-83181747D01*
X98536107Y-83167133D01*
X98557151Y-83154520D01*
X98579329Y-83144030D01*
X98602429Y-83135765D01*
X98626227Y-83129804D01*
X98650496Y-83126204D01*
X98675000Y-83125000D01*
X99425000Y-83125000D01*
X99449504Y-83126204D01*
X99449504Y-83126204D01*
G37*
D19*
X99050000Y-84000000D03*
D10*
G36*
X96649504Y-83126204D02*
G01*
X96673773Y-83129804D01*
X96697571Y-83135765D01*
X96720671Y-83144030D01*
X96742849Y-83154520D01*
X96763893Y-83167133D01*
X96783598Y-83181747D01*
X96801777Y-83198223D01*
X96818253Y-83216402D01*
X96832867Y-83236107D01*
X96845480Y-83257151D01*
X96855970Y-83279329D01*
X96864235Y-83302429D01*
X96870196Y-83326227D01*
X96873796Y-83350496D01*
X96875000Y-83375000D01*
X96875000Y-84625000D01*
X96873796Y-84649504D01*
X96870196Y-84673773D01*
X96864235Y-84697571D01*
X96855970Y-84720671D01*
X96845480Y-84742849D01*
X96832867Y-84763893D01*
X96818253Y-84783598D01*
X96801777Y-84801777D01*
X96783598Y-84818253D01*
X96763893Y-84832867D01*
X96742849Y-84845480D01*
X96720671Y-84855970D01*
X96697571Y-84864235D01*
X96673773Y-84870196D01*
X96649504Y-84873796D01*
X96625000Y-84875000D01*
X95875000Y-84875000D01*
X95850496Y-84873796D01*
X95826227Y-84870196D01*
X95802429Y-84864235D01*
X95779329Y-84855970D01*
X95757151Y-84845480D01*
X95736107Y-84832867D01*
X95716402Y-84818253D01*
X95698223Y-84801777D01*
X95681747Y-84783598D01*
X95667133Y-84763893D01*
X95654520Y-84742849D01*
X95644030Y-84720671D01*
X95635765Y-84697571D01*
X95629804Y-84673773D01*
X95626204Y-84649504D01*
X95625000Y-84625000D01*
X95625000Y-83375000D01*
X95626204Y-83350496D01*
X95629804Y-83326227D01*
X95635765Y-83302429D01*
X95644030Y-83279329D01*
X95654520Y-83257151D01*
X95667133Y-83236107D01*
X95681747Y-83216402D01*
X95698223Y-83198223D01*
X95716402Y-83181747D01*
X95736107Y-83167133D01*
X95757151Y-83154520D01*
X95779329Y-83144030D01*
X95802429Y-83135765D01*
X95826227Y-83129804D01*
X95850496Y-83126204D01*
X95875000Y-83125000D01*
X96625000Y-83125000D01*
X96649504Y-83126204D01*
X96649504Y-83126204D01*
G37*
D19*
X96250000Y-84000000D03*
D10*
G36*
X99449504Y-90876204D02*
G01*
X99473773Y-90879804D01*
X99497571Y-90885765D01*
X99520671Y-90894030D01*
X99542849Y-90904520D01*
X99563893Y-90917133D01*
X99583598Y-90931747D01*
X99601777Y-90948223D01*
X99618253Y-90966402D01*
X99632867Y-90986107D01*
X99645480Y-91007151D01*
X99655970Y-91029329D01*
X99664235Y-91052429D01*
X99670196Y-91076227D01*
X99673796Y-91100496D01*
X99675000Y-91125000D01*
X99675000Y-92375000D01*
X99673796Y-92399504D01*
X99670196Y-92423773D01*
X99664235Y-92447571D01*
X99655970Y-92470671D01*
X99645480Y-92492849D01*
X99632867Y-92513893D01*
X99618253Y-92533598D01*
X99601777Y-92551777D01*
X99583598Y-92568253D01*
X99563893Y-92582867D01*
X99542849Y-92595480D01*
X99520671Y-92605970D01*
X99497571Y-92614235D01*
X99473773Y-92620196D01*
X99449504Y-92623796D01*
X99425000Y-92625000D01*
X98675000Y-92625000D01*
X98650496Y-92623796D01*
X98626227Y-92620196D01*
X98602429Y-92614235D01*
X98579329Y-92605970D01*
X98557151Y-92595480D01*
X98536107Y-92582867D01*
X98516402Y-92568253D01*
X98498223Y-92551777D01*
X98481747Y-92533598D01*
X98467133Y-92513893D01*
X98454520Y-92492849D01*
X98444030Y-92470671D01*
X98435765Y-92447571D01*
X98429804Y-92423773D01*
X98426204Y-92399504D01*
X98425000Y-92375000D01*
X98425000Y-91125000D01*
X98426204Y-91100496D01*
X98429804Y-91076227D01*
X98435765Y-91052429D01*
X98444030Y-91029329D01*
X98454520Y-91007151D01*
X98467133Y-90986107D01*
X98481747Y-90966402D01*
X98498223Y-90948223D01*
X98516402Y-90931747D01*
X98536107Y-90917133D01*
X98557151Y-90904520D01*
X98579329Y-90894030D01*
X98602429Y-90885765D01*
X98626227Y-90879804D01*
X98650496Y-90876204D01*
X98675000Y-90875000D01*
X99425000Y-90875000D01*
X99449504Y-90876204D01*
X99449504Y-90876204D01*
G37*
D19*
X99050000Y-91750000D03*
D10*
G36*
X96649504Y-90876204D02*
G01*
X96673773Y-90879804D01*
X96697571Y-90885765D01*
X96720671Y-90894030D01*
X96742849Y-90904520D01*
X96763893Y-90917133D01*
X96783598Y-90931747D01*
X96801777Y-90948223D01*
X96818253Y-90966402D01*
X96832867Y-90986107D01*
X96845480Y-91007151D01*
X96855970Y-91029329D01*
X96864235Y-91052429D01*
X96870196Y-91076227D01*
X96873796Y-91100496D01*
X96875000Y-91125000D01*
X96875000Y-92375000D01*
X96873796Y-92399504D01*
X96870196Y-92423773D01*
X96864235Y-92447571D01*
X96855970Y-92470671D01*
X96845480Y-92492849D01*
X96832867Y-92513893D01*
X96818253Y-92533598D01*
X96801777Y-92551777D01*
X96783598Y-92568253D01*
X96763893Y-92582867D01*
X96742849Y-92595480D01*
X96720671Y-92605970D01*
X96697571Y-92614235D01*
X96673773Y-92620196D01*
X96649504Y-92623796D01*
X96625000Y-92625000D01*
X95875000Y-92625000D01*
X95850496Y-92623796D01*
X95826227Y-92620196D01*
X95802429Y-92614235D01*
X95779329Y-92605970D01*
X95757151Y-92595480D01*
X95736107Y-92582867D01*
X95716402Y-92568253D01*
X95698223Y-92551777D01*
X95681747Y-92533598D01*
X95667133Y-92513893D01*
X95654520Y-92492849D01*
X95644030Y-92470671D01*
X95635765Y-92447571D01*
X95629804Y-92423773D01*
X95626204Y-92399504D01*
X95625000Y-92375000D01*
X95625000Y-91125000D01*
X95626204Y-91100496D01*
X95629804Y-91076227D01*
X95635765Y-91052429D01*
X95644030Y-91029329D01*
X95654520Y-91007151D01*
X95667133Y-90986107D01*
X95681747Y-90966402D01*
X95698223Y-90948223D01*
X95716402Y-90931747D01*
X95736107Y-90917133D01*
X95757151Y-90904520D01*
X95779329Y-90894030D01*
X95802429Y-90885765D01*
X95826227Y-90879804D01*
X95850496Y-90876204D01*
X95875000Y-90875000D01*
X96625000Y-90875000D01*
X96649504Y-90876204D01*
X96649504Y-90876204D01*
G37*
D19*
X96250000Y-91750000D03*
D20*
X99450000Y-62545000D03*
X94250000Y-62545000D03*
X99450000Y-63815000D03*
X94250000Y-63815000D03*
X99450000Y-65085000D03*
X94250000Y-65085000D03*
X99450000Y-66355000D03*
X94250000Y-66355000D03*
D21*
X99250000Y-86600000D03*
X96150000Y-86600000D03*
X99250000Y-87250000D03*
X96150000Y-87250000D03*
X99250000Y-87900000D03*
X96150000Y-87900000D03*
X99250000Y-88550000D03*
X96150000Y-88550000D03*
D22*
X37050000Y-75500000D03*
X38000000Y-75500000D03*
X38950000Y-75500000D03*
X38900000Y-72900000D03*
X37050000Y-72900000D03*
M02*
