G04 #@! TF.GenerationSoftware,KiCad,Pcbnew,(5.1.2-1)-1*
G04 #@! TF.CreationDate,2019-08-05T15:02:51+03:00*
G04 #@! TF.ProjectId,Boost_Converter,426f6f73-745f-4436-9f6e-766572746572,rev?*
G04 #@! TF.SameCoordinates,Original*
G04 #@! TF.FileFunction,Soldermask,Bot*
G04 #@! TF.FilePolarity,Negative*
%FSLAX46Y46*%
G04 Gerber Fmt 4.6, Leading zero omitted, Abs format (unit mm)*
G04 Created by KiCad (PCBNEW (5.1.2-1)-1) date 2019-08-05 15:02:51*
%MOMM*%
%LPD*%
G04 APERTURE LIST*
%ADD10C,0.100000*%
G04 APERTURE END LIST*
D10*
G36*
X86389943Y-95666248D02*
G01*
X86945189Y-95896238D01*
X86945190Y-95896239D01*
X87444899Y-96230134D01*
X87869866Y-96655101D01*
X87869867Y-96655103D01*
X88203762Y-97154811D01*
X88433752Y-97710057D01*
X88551000Y-98299501D01*
X88551000Y-98900499D01*
X88433752Y-99489943D01*
X88203762Y-100045189D01*
X88203761Y-100045190D01*
X87869866Y-100544899D01*
X87444899Y-100969866D01*
X87193347Y-101137948D01*
X86945189Y-101303762D01*
X86389943Y-101533752D01*
X85800499Y-101651000D01*
X85199501Y-101651000D01*
X84610057Y-101533752D01*
X84054811Y-101303762D01*
X83806653Y-101137948D01*
X83555101Y-100969866D01*
X83130134Y-100544899D01*
X82796239Y-100045190D01*
X82796238Y-100045189D01*
X82566248Y-99489943D01*
X82449000Y-98900499D01*
X82449000Y-98299501D01*
X82566248Y-97710057D01*
X82796238Y-97154811D01*
X83130133Y-96655103D01*
X83130134Y-96655101D01*
X83555101Y-96230134D01*
X84054810Y-95896239D01*
X84054811Y-95896238D01*
X84610057Y-95666248D01*
X85199501Y-95549000D01*
X85800499Y-95549000D01*
X86389943Y-95666248D01*
X86389943Y-95666248D01*
G37*
G36*
X61139943Y-95666248D02*
G01*
X61695189Y-95896238D01*
X61695190Y-95896239D01*
X62194899Y-96230134D01*
X62619866Y-96655101D01*
X62619867Y-96655103D01*
X62953762Y-97154811D01*
X63183752Y-97710057D01*
X63301000Y-98299501D01*
X63301000Y-98900499D01*
X63183752Y-99489943D01*
X62953762Y-100045189D01*
X62953761Y-100045190D01*
X62619866Y-100544899D01*
X62194899Y-100969866D01*
X61943347Y-101137948D01*
X61695189Y-101303762D01*
X61139943Y-101533752D01*
X60550499Y-101651000D01*
X59949501Y-101651000D01*
X59360057Y-101533752D01*
X58804811Y-101303762D01*
X58556653Y-101137948D01*
X58305101Y-100969866D01*
X57880134Y-100544899D01*
X57546239Y-100045190D01*
X57546238Y-100045189D01*
X57316248Y-99489943D01*
X57199000Y-98900499D01*
X57199000Y-98299501D01*
X57316248Y-97710057D01*
X57546238Y-97154811D01*
X57880133Y-96655103D01*
X57880134Y-96655101D01*
X58305101Y-96230134D01*
X58804810Y-95896239D01*
X58804811Y-95896238D01*
X59360057Y-95666248D01*
X59949501Y-95549000D01*
X60550499Y-95549000D01*
X61139943Y-95666248D01*
X61139943Y-95666248D01*
G37*
G36*
X30438855Y-78352140D02*
G01*
X30502618Y-78358420D01*
X30593404Y-78385960D01*
X30625336Y-78395646D01*
X30738425Y-78456094D01*
X30837554Y-78537446D01*
X30918906Y-78636575D01*
X30979354Y-78749664D01*
X30979355Y-78749668D01*
X31016580Y-78872382D01*
X31029149Y-79000000D01*
X31016580Y-79127618D01*
X30993185Y-79204740D01*
X30979354Y-79250336D01*
X30918906Y-79363425D01*
X30837554Y-79462554D01*
X30738425Y-79543906D01*
X30625336Y-79604354D01*
X30593404Y-79614040D01*
X30502618Y-79641580D01*
X30438855Y-79647860D01*
X30406974Y-79651000D01*
X29643026Y-79651000D01*
X29611145Y-79647860D01*
X29547382Y-79641580D01*
X29456596Y-79614040D01*
X29424664Y-79604354D01*
X29311575Y-79543906D01*
X29212446Y-79462554D01*
X29131094Y-79363425D01*
X29070646Y-79250336D01*
X29056815Y-79204740D01*
X29033420Y-79127618D01*
X29020851Y-79000000D01*
X29033420Y-78872382D01*
X29070645Y-78749668D01*
X29070646Y-78749664D01*
X29131094Y-78636575D01*
X29212446Y-78537446D01*
X29311575Y-78456094D01*
X29424664Y-78395646D01*
X29456596Y-78385960D01*
X29547382Y-78358420D01*
X29611145Y-78352140D01*
X29643026Y-78349000D01*
X30406974Y-78349000D01*
X30438855Y-78352140D01*
X30438855Y-78352140D01*
G37*
G36*
X118802585Y-76478802D02*
G01*
X118952410Y-76508604D01*
X119234674Y-76625521D01*
X119488705Y-76795259D01*
X119704741Y-77011295D01*
X119874479Y-77265326D01*
X119991396Y-77547590D01*
X119991396Y-77547591D01*
X120051000Y-77847239D01*
X120051000Y-78152761D01*
X120036362Y-78226351D01*
X119991396Y-78452410D01*
X119874479Y-78734674D01*
X119704741Y-78988705D01*
X119488705Y-79204741D01*
X119234674Y-79374479D01*
X118952410Y-79491396D01*
X118802585Y-79521198D01*
X118652761Y-79551000D01*
X118347239Y-79551000D01*
X118197415Y-79521198D01*
X118047590Y-79491396D01*
X117765326Y-79374479D01*
X117511295Y-79204741D01*
X117295259Y-78988705D01*
X117125521Y-78734674D01*
X117008604Y-78452410D01*
X116963638Y-78226351D01*
X116949000Y-78152761D01*
X116949000Y-77847239D01*
X117008604Y-77547591D01*
X117008604Y-77547590D01*
X117125521Y-77265326D01*
X117295259Y-77011295D01*
X117511295Y-76795259D01*
X117765326Y-76625521D01*
X118047590Y-76508604D01*
X118197415Y-76478802D01*
X118347239Y-76449000D01*
X118652761Y-76449000D01*
X118802585Y-76478802D01*
X118802585Y-76478802D01*
G37*
G36*
X32951348Y-77253820D02*
G01*
X32951350Y-77253821D01*
X32951351Y-77253821D01*
X33092574Y-77312317D01*
X33092577Y-77312319D01*
X33219669Y-77397239D01*
X33327761Y-77505331D01*
X33355998Y-77547591D01*
X33412683Y-77632426D01*
X33471179Y-77773649D01*
X33501000Y-77923571D01*
X33501000Y-78076429D01*
X33471179Y-78226351D01*
X33412683Y-78367574D01*
X33412681Y-78367577D01*
X33327761Y-78494669D01*
X33219669Y-78602761D01*
X33092577Y-78687681D01*
X33092574Y-78687683D01*
X32951351Y-78746179D01*
X32951350Y-78746179D01*
X32951348Y-78746180D01*
X32801431Y-78776000D01*
X32648569Y-78776000D01*
X32498652Y-78746180D01*
X32498650Y-78746179D01*
X32498649Y-78746179D01*
X32357426Y-78687683D01*
X32357423Y-78687681D01*
X32230331Y-78602761D01*
X32122239Y-78494669D01*
X32037319Y-78367577D01*
X32037317Y-78367574D01*
X31978821Y-78226351D01*
X31949000Y-78076429D01*
X31949000Y-77923571D01*
X31978821Y-77773649D01*
X32037317Y-77632426D01*
X32094002Y-77547591D01*
X32122239Y-77505331D01*
X32230331Y-77397239D01*
X32357423Y-77312319D01*
X32357426Y-77312317D01*
X32498649Y-77253821D01*
X32498650Y-77253821D01*
X32498652Y-77253820D01*
X32648569Y-77224000D01*
X32801431Y-77224000D01*
X32951348Y-77253820D01*
X32951348Y-77253820D01*
G37*
G36*
X32951348Y-72253820D02*
G01*
X32951350Y-72253821D01*
X32951351Y-72253821D01*
X33092574Y-72312317D01*
X33092577Y-72312319D01*
X33219669Y-72397239D01*
X33327761Y-72505331D01*
X33412681Y-72632423D01*
X33412683Y-72632426D01*
X33471179Y-72773649D01*
X33501000Y-72923571D01*
X33501000Y-73076429D01*
X33471179Y-73226351D01*
X33412683Y-73367574D01*
X33412681Y-73367577D01*
X33327761Y-73494669D01*
X33219669Y-73602761D01*
X33092577Y-73687681D01*
X33092574Y-73687683D01*
X32951351Y-73746179D01*
X32951350Y-73746179D01*
X32951348Y-73746180D01*
X32801431Y-73776000D01*
X32648569Y-73776000D01*
X32498652Y-73746180D01*
X32498650Y-73746179D01*
X32498649Y-73746179D01*
X32357426Y-73687683D01*
X32357423Y-73687681D01*
X32230331Y-73602761D01*
X32122239Y-73494669D01*
X32037319Y-73367577D01*
X32037317Y-73367574D01*
X31978821Y-73226351D01*
X31949000Y-73076429D01*
X31949000Y-72923571D01*
X31978821Y-72773649D01*
X32037317Y-72632426D01*
X32037319Y-72632423D01*
X32122239Y-72505331D01*
X32230331Y-72397239D01*
X32357423Y-72312319D01*
X32357426Y-72312317D01*
X32498649Y-72253821D01*
X32498650Y-72253821D01*
X32498652Y-72253820D01*
X32648569Y-72224000D01*
X32801431Y-72224000D01*
X32951348Y-72253820D01*
X32951348Y-72253820D01*
G37*
G36*
X30438855Y-71352140D02*
G01*
X30502618Y-71358420D01*
X30593404Y-71385960D01*
X30625336Y-71395646D01*
X30738425Y-71456094D01*
X30837554Y-71537446D01*
X30918906Y-71636575D01*
X30979354Y-71749664D01*
X30979355Y-71749668D01*
X31016580Y-71872382D01*
X31029149Y-72000000D01*
X31016580Y-72127618D01*
X30989040Y-72218404D01*
X30979354Y-72250336D01*
X30918906Y-72363425D01*
X30837554Y-72462554D01*
X30738425Y-72543906D01*
X30625336Y-72604354D01*
X30593404Y-72614040D01*
X30502618Y-72641580D01*
X30438855Y-72647860D01*
X30406974Y-72651000D01*
X29643026Y-72651000D01*
X29611145Y-72647860D01*
X29547382Y-72641580D01*
X29456596Y-72614040D01*
X29424664Y-72604354D01*
X29311575Y-72543906D01*
X29212446Y-72462554D01*
X29131094Y-72363425D01*
X29070646Y-72250336D01*
X29060960Y-72218404D01*
X29033420Y-72127618D01*
X29020851Y-72000000D01*
X29033420Y-71872382D01*
X29070645Y-71749668D01*
X29070646Y-71749664D01*
X29131094Y-71636575D01*
X29212446Y-71537446D01*
X29311575Y-71456094D01*
X29424664Y-71395646D01*
X29456596Y-71385960D01*
X29547382Y-71358420D01*
X29611145Y-71352140D01*
X29643026Y-71349000D01*
X30406974Y-71349000D01*
X30438855Y-71352140D01*
X30438855Y-71352140D01*
G37*
G36*
X118802585Y-63478802D02*
G01*
X118952410Y-63508604D01*
X119234674Y-63625521D01*
X119488705Y-63795259D01*
X119704741Y-64011295D01*
X119874479Y-64265326D01*
X119991396Y-64547590D01*
X120051000Y-64847240D01*
X120051000Y-65152760D01*
X119991396Y-65452410D01*
X119874479Y-65734674D01*
X119704741Y-65988705D01*
X119488705Y-66204741D01*
X119234674Y-66374479D01*
X118952410Y-66491396D01*
X118802585Y-66521198D01*
X118652761Y-66551000D01*
X118347239Y-66551000D01*
X118197415Y-66521198D01*
X118047590Y-66491396D01*
X117765326Y-66374479D01*
X117511295Y-66204741D01*
X117295259Y-65988705D01*
X117125521Y-65734674D01*
X117008604Y-65452410D01*
X116949000Y-65152760D01*
X116949000Y-64847240D01*
X117008604Y-64547590D01*
X117125521Y-64265326D01*
X117295259Y-64011295D01*
X117511295Y-63795259D01*
X117765326Y-63625521D01*
X118047590Y-63508604D01*
X118197415Y-63478802D01*
X118347239Y-63449000D01*
X118652761Y-63449000D01*
X118802585Y-63478802D01*
X118802585Y-63478802D01*
G37*
G36*
X70389943Y-44216248D02*
G01*
X70945189Y-44446238D01*
X70945190Y-44446239D01*
X71444899Y-44780134D01*
X71869866Y-45205101D01*
X71869867Y-45205103D01*
X72203762Y-45704811D01*
X72433752Y-46260057D01*
X72551000Y-46849501D01*
X72551000Y-47450499D01*
X72433752Y-48039943D01*
X72203762Y-48595189D01*
X72203761Y-48595190D01*
X71869866Y-49094899D01*
X71444899Y-49519866D01*
X71193347Y-49687948D01*
X70945189Y-49853762D01*
X70389943Y-50083752D01*
X69800499Y-50201000D01*
X69199501Y-50201000D01*
X68610057Y-50083752D01*
X68054811Y-49853762D01*
X67806653Y-49687948D01*
X67555101Y-49519866D01*
X67130134Y-49094899D01*
X66796239Y-48595190D01*
X66796238Y-48595189D01*
X66566248Y-48039943D01*
X66449000Y-47450499D01*
X66449000Y-46849501D01*
X66566248Y-46260057D01*
X66796238Y-45704811D01*
X67130133Y-45205103D01*
X67130134Y-45205101D01*
X67555101Y-44780134D01*
X68054810Y-44446239D01*
X68054811Y-44446238D01*
X68610057Y-44216248D01*
X69199501Y-44099000D01*
X69800499Y-44099000D01*
X70389943Y-44216248D01*
X70389943Y-44216248D01*
G37*
G36*
X45139943Y-44216248D02*
G01*
X45695189Y-44446238D01*
X45695190Y-44446239D01*
X46194899Y-44780134D01*
X46619866Y-45205101D01*
X46619867Y-45205103D01*
X46953762Y-45704811D01*
X47183752Y-46260057D01*
X47301000Y-46849501D01*
X47301000Y-47450499D01*
X47183752Y-48039943D01*
X46953762Y-48595189D01*
X46953761Y-48595190D01*
X46619866Y-49094899D01*
X46194899Y-49519866D01*
X45943347Y-49687948D01*
X45695189Y-49853762D01*
X45139943Y-50083752D01*
X44550499Y-50201000D01*
X43949501Y-50201000D01*
X43360057Y-50083752D01*
X42804811Y-49853762D01*
X42556653Y-49687948D01*
X42305101Y-49519866D01*
X41880134Y-49094899D01*
X41546239Y-48595190D01*
X41546238Y-48595189D01*
X41316248Y-48039943D01*
X41199000Y-47450499D01*
X41199000Y-46849501D01*
X41316248Y-46260057D01*
X41546238Y-45704811D01*
X41880133Y-45205103D01*
X41880134Y-45205101D01*
X42305101Y-44780134D01*
X42804810Y-44446239D01*
X42804811Y-44446238D01*
X43360057Y-44216248D01*
X43949501Y-44099000D01*
X44550499Y-44099000D01*
X45139943Y-44216248D01*
X45139943Y-44216248D01*
G37*
M02*
