M48
; DRILL file {KiCad (5.1.2-1)-1} date 2019 August 05, Monday 15:02:16
; FORMAT={-:-/ absolute / inch / decimal}
; #@! TF.CreationDate,2019-08-05T15:02:16+03:00
; #@! TF.GenerationSoftware,Kicad,Pcbnew,(5.1.2-1)-1
; #@! TF.FileFunction,Plated,1,2,PTH
FMAT,2
INCH
T1C0.0157
T2C0.0236
T3C0.0335
T4C0.0787
T5C0.1358
%
G90
G05
T1
X1.5945Y-2.6969
X2.0276Y-4.2323
X3.7008Y-3.5827
X3.7205Y-3.3071
X3.7402Y-3.4646
X3.8583Y-2.9528
X3.9567Y-3.6024
X3.9961Y-2.5591
T3
X1.2884Y-2.874
X1.2884Y-3.0709
T4
X4.6654Y-2.5591
X4.6654Y-3.0709
T5
X1.7421Y-1.8563
X2.372Y-3.8819
X2.7362Y-1.8563
X3.3661Y-3.8819
T2
G00X1.1683Y-2.8346
M15
G01X1.1959Y-2.8346
M16
G05
G00X1.1959Y-3.1102
M15
G01X1.1683Y-3.1102
M16
G05
T0
M30
